<?xml version="1.0" encoding="UTF-8"?>
<svg width="1920" height="1080" xmlns="http://www.w3.org/2000/svg">
    <defs>
        <filter id="shadow" x="-50%" y="-50%" width="200%" height="200%">
            <feDropShadow dx="0" dy="0" stdDeviation="10" flood-color="black" flood-opacity="0.7"/>
        </filter>
    </defs>
    <rect x="1050" y="50" width="800" height="900" fill="#111111" fill-opacity="0.85" rx="10" ry="10" filter="url(#shadow)" />
    <g fill="#000">
        <rect x="1105" y="98" width="670" height="1" />
        <rect x="1105" y="158" width="670" height="1" />
        <rect x="1105" y="222" width="670" height="1" />
        <rect x="1105" y="283" width="670" height="1" />
        <rect x="1105" y="345" width="670" height="1" />
        <rect x="1105" y="410" width="670" height="1" />
        <rect x="1105" y="472" width="670" height="1" />
        <rect x="1105" y="535" width="670" height="1" />
        <rect x="1105" y="597" width="670" height="1" />
        <rect x="1105" y="660" width="670" height="1" />
        <rect x="1105" y="722" width="670" height="1" />
        <rect x="1105" y="786" width="670" height="1" />
        <rect x="1105" y="848" width="670" height="1" />
    </g>
</svg>
