<?xml version="1.0" encoding="UTF-8" standalone="no"?>
<svg
   height="181.73802"
   viewBox="0 0 1538.5 563.38679"
   width="496.29001"
   version="1.1"
   id="svg66172"
   sodipodi:docname="camplynx.svg"
   inkscape:version="1.4.3 (0d15f75042, 2025-12-25)"
   xmlns:inkscape="http://www.inkscape.org/namespaces/inkscape"
   xmlns:sodipodi="http://sodipodi.sourceforge.net/DTD/sodipodi-0.dtd"
   xmlns="http://www.w3.org/2000/svg"
   xmlns:svg="http://www.w3.org/2000/svg">
  <defs
     id="defs66176" />
  <sodipodi:namedview
     id="namedview66174"
     pagecolor="#8b8b8b"
     bordercolor="#666666"
     borderopacity="1.0"
     inkscape:pageshadow="2"
     inkscape:pageopacity="0.0"
     inkscape:pagecheckerboard="0"
     showgrid="false"
     inkscape:zoom="1.940201"
     inkscape:cx="283.21808"
     inkscape:cy="92.773892"
     inkscape:window-width="1920"
     inkscape:window-height="1080"
     inkscape:window-x="0"
     inkscape:window-y="0"
     inkscape:window-maximized="0"
     inkscape:current-layer="svg66172"
     inkscape:showpageshadow="2"
     inkscape:deskcolor="#d1d1d1" />
  <path
     style="baseline-shift:baseline;display:inline;overflow:visible;opacity:0.98;vector-effect:none;fill:#fffdfd;stroke-linecap:round;stroke-linejoin:round;paint-order:markers stroke fill;enable-background:accumulate;stop-color:#000000"
     d="M 1254.3477,-6.1359803e-4 A 23.252325,23.252325 0 0 0 1234.0352,12.284586 a 23.252325,23.252325 0 0 0 -12.25,20.3027 V 134.87444 a 23.252325,23.252325 0 0 0 12.2696,20.30664 23.252325,23.252325 0 0 0 20.2929,12.21875 h 102.2754 a 23.252325,23.252325 0 0 0 20.293,-12.21875 23.252325,23.252325 0 0 0 12.2695,-20.30664 V 68.933026 32.587286 a 23.252325,23.252325 0 0 0 -12.2109,-20.291 23.252325,23.252325 0 0 0 -20.3145,-12.29689959803 z M 1277.586,55.800186 h 55.8008 v 55.798844 h -55.8008 z"
     id="path10" />
  <path
     d="M 1254.336,32.549686 V 134.84969 h 102.3 V 32.549686 Z"
     fill="#fe7e26"
     id="path66154"
     style="opacity:0.98;stroke:none;stroke-width:46.5;stroke-linecap:round;stroke-linejoin:round;stroke-dasharray:none;stroke-opacity:1;paint-order:markers stroke fill" />
  <path
     style="baseline-shift:baseline;display:inline;overflow:visible;vector-effect:none;fill:#fefefe;stroke-linecap:round;stroke-linejoin:round;paint-order:markers stroke fill;enable-background:accumulate;stop-color:#000000"
     d="m 235.99218,50.171286 a 23.252325,23.252325 0 0 0 -21.07226,13.41212 l -35.83985,76.783204 -29.60351,63.41797 -55.78125,0.20312 -70.53125,0.25586 A 23.252325,23.252325 0 0 0 0,227.49356 v 10 a 23.252325,23.252325 0 0 0 23.32812,23.25 l 74.53125,-0.25586 74.5293,-0.25586 a 23.252325,23.252325 0 0 0 20.98828,-13.41797 l 31.60937,-67.72265 c 4.25485,-9.11589 7.26682,-15.39508 11.00782,-23.32031 7.72437,16.4477 16.04025,34.17067 26.17578,55.9121 12.77691,27.40729 24.4707,52.2707 33.04687,70.30665 4.28809,9.01797 7.79091,16.31662 10.29883,21.45312 1.25396,2.56825 2.24567,4.57253 3.04688,6.13672 0.4006,0.7821 0.7235,1.40848 1.19335,2.24609 0.23493,0.41881 0.43204,0.80945 1.13282,1.86328 0.35039,0.52692 0.65538,1.12241 2.19336,2.82032 0.76899,0.84895 1.61308,2.02848 4.82226,4.05859 1.60459,1.01505 3.89182,2.3962 8.09961,3.19531 4.20779,0.79911 16.58245,-3.07522 16.58399,-3.07617 7.8451,-4.85839 6.50758,-5.92411 7.21679,-6.9707 0.70922,-1.0466 1.04557,-1.65523 1.36719,-2.23047 0.64324,-1.15048 1.09029,-2.05545 1.57422,-3.06055 0.96785,-2.0102 1.97041,-4.26803 2.99805,-6.73633 2.96319,-7.11613 6.48145,-14.80573 20.10351,-43.80468 l 0.78125,-1.66602 275.44531,-0.23828 290.19527,-0.25195 a 23.252325,23.252325 0 0 0 23.2305,-23.25 v -10 a 23.252325,23.252325 0 0 0 -23.2715,-23.25 l -294.22458,0.25195 -294.22461,0.25195 a 23.252325,23.252325 0 0 0 -21.05078,13.41992 l -2.95898,6.34375 c -7.67994,-16.4543 -15.85962,-33.98035 -25.95118,-55.62109 L 257.05859,63.593166 A 23.252325,23.252325 0 0 0 235.99218,50.171286 Z M 1098.25,199.23184 a 23.252325,23.252325 0 0 0 -23.25,23.25 v 5 5 a 23.252325,23.252325 0 0 0 23.25,23.25 h 246 a 23.252325,23.252325 0 0 0 23.25,-23.25 v -10 a 23.252325,23.252325 0 0 0 -23.25,-23.25 z m 402,0 a 23.252325,23.252325 0 0 0 -23.25,23.25 v 5 5 a 23.252325,23.252325 0 0 0 23.25,23.25 h 15 a 23.252325,23.252325 0 0 0 23.25,-23.25 v -10 a 23.252325,23.252325 0 0 0 -23.25,-23.25 z m 7.5,17.5 10.75,10.75 -10.75,10.75 -10.75,-10.75 z"
     id="path1" />
  <g
     id="g6"
     transform="translate(902.16019,168.38261)">
    <g
       id="path66168"
       style="opacity:0.98;stroke:#fffdfd;stroke-width:46.5;stroke-linecap:round;stroke-linejoin:round;stroke-dasharray:none;stroke-opacity:1;paint-order:markers stroke fill"
       transform="translate(-894.79888,-111.35437)">
      <path
         style="baseline-shift:baseline;display:inline;overflow:visible;vector-effect:none;fill:#fffdfd;stroke:none;enable-background:accumulate;stop-color:#000000;stop-opacity:1"
         d="m 1090.0449,219.79102 a 23.25234,23.25234 0 0 0 -20.3183,12.30859 23.25234,23.25234 0 0 0 -12.2754,20.30859 v 221.34766 a 23.25234,23.25234 0 0 0 12.2793,20.30859 23.25234,23.25234 0 0 0 20.3144,12.29492 h 220.541 a 23.25234,23.25234 0 0 0 20.3145,-12.29687 23.25234,23.25234 0 0 0 12.2715,-20.30664 V 252.4082 a 23.25234,23.25234 0 0 0 -12.2676,-20.30664 23.25234,23.25234 0 0 0 -20.3184,-12.31054 z m 23.1934,55.81835 h 174.1523 v 174.93165 h -174.1523 z"
         id="path5" />
      <path
         style="baseline-shift:baseline;display:inline;overflow:visible;vector-effect:none;stroke:none;enable-background:accumulate;stop-color:#000000;stop-opacity:1"
         d="m 1090.044,243.041 v 9.318 h 220.542 v -9.318 z m 229.878,9.367 h -9.282 v 221.347 h 9.282 z m -9.336,230.702 v -9.319 h -220.542 v 9.319 z m -229.885,-9.355 h 9.288 V 252.408 h -9.288 z m 9.288,-221.347 h 0.055 v -0.049 h -0.055 z m 0,221.347 v 0.036 h 0.055 v -0.036 z m 220.597,0.036 h 0.054 v -0.036 h -0.054 z m 0.054,-221.383 v -0.049 h -0.054 v 0.049 z"
         id="path6" />
    </g>
    <path
       style="baseline-shift:baseline;display:inline;overflow:visible;opacity:0.98;fill:#3e47ca;stroke:none;stroke-width:0;stroke-linecap:round;stroke-linejoin:round;stroke-dasharray:none;stroke-opacity:1;paint-order:markers stroke fill;enable-background:accumulate;stop-color:#000000"
       d="m 195.19112,141.00577 v 221.43 h 220.65 v -221.43 z"
       id="path4" />
  </g>
  <g
     id="g8"
     transform="translate(353.71337,227.22364)">
    <g
       id="path66150"
       style="opacity:0.98">
      <path
         style="baseline-shift:baseline;display:inline;overflow:visible;vector-effect:none;fill:#fffdfd;stroke-linecap:round;stroke-linejoin:round;paint-order:markers stroke fill;enable-background:accumulate;stop-color:#000000;stop-opacity:1"
         d="M 598.625,-4.1191406 A 23.252325,23.252325 0 0 0 578.31445,8.1640625 23.252325,23.252325 0 0 0 566.0625,28.466797 V 130.75391 a 23.252325,23.252325 0 0 0 12.26758,20.30664 23.252325,23.252325 0 0 0 20.29492,12.2207 h 102.27539 a 23.252325,23.252325 0 0 0 20.29492,-12.2207 23.252325,23.252325 0 0 0 12.26758,-20.30664 V 28.466797 A 23.252325,23.252325 0 0 0 721.24219,8.171875 23.252325,23.252325 0 0 0 700.92969,-4.1191406 Z m 23.23828,55.8007816 h 55.79883 v 55.798829 h -55.79883 z"
         id="path16" />
      <path
         style="baseline-shift:baseline;display:inline;overflow:visible;vector-effect:none;stroke-linecap:round;stroke-linejoin:round;paint-order:markers stroke fill;enable-background:accumulate;stop-color:#000000;stop-opacity:1"
         d="m 598.62466,19.13081 v 9.300004 h 102.288 V 130.73085 h -102.3 V 28.466814 h -9.3 V 130.75485 h 9.312 v 9.276 h 102.276 v -9.276 h 9.312 V 28.466814 h -9.282 V 19.13081 Z m -0.012,9.336004 h 0.012 v -0.036 h -0.012 z"
         id="path17" />
    </g>
    <path
       style="baseline-shift:baseline;display:inline;overflow:visible;opacity:0.98;vector-effect:none;fill:#ec1b23;stroke-linecap:round;stroke-linejoin:round;paint-order:markers stroke fill;enable-background:accumulate;stop-color:#000000"
       d="M 598.61266,28.430814 V 130.73085 h 102.3 V 28.430814 Z"
       id="path8" />
  </g>
  <g
     id="path66136"
     style="opacity:1"
     transform="translate(35.11073,1063.2731)">
    <path
       style="baseline-shift:baseline;display:inline;overflow:visible;vector-effect:none;fill:#fefefe;stroke-linecap:round;stroke-linejoin:round;paint-order:markers stroke fill;enable-background:accumulate;stop-color:#000000;stop-opacity:1"
       d="m 27.173828,-782.89453 a 23.252325,23.252325 0 0 0 -23.2499999,23.25 v 36.06641 a 23.252325,23.252325 0 0 0 23.2499999,23.25 h 7.566406 v 94.84765 h -7.566406 a 23.252325,23.252325 0 0 0 -23.2499999,23.25 v 36.06641 a 23.252325,23.252325 0 0 0 23.2499999,23.25 H 219.65625 a 23.252325,23.252325 0 0 0 5.77344,-1.54688 23.252325,23.252325 0 0 0 5.77343,1.54688 h 116.29297 a 23.252325,23.252325 0 0 0 18.53125,-10.02149 23.252325,23.252325 0 0 0 18.53125,10.02149 h 94.30274 a 23.252325,23.252325 0 0 0 23.25,-23.25 v -25.03321 l 22.51367,38.33985 a 23.252325,23.252325 0 0 0 20.04883,11.47851 h 48.0039 a 23.252325,23.252325 0 0 0 8.77149,-2.34961 23.252325,23.252325 0 0 0 3.04297,0.81446 h 99.41406 a 23.252325,23.252325 0 0 0 11.07031,-2.9668 23.252325,23.252325 0 0 0 11.07227,2.9668 h 114.28125 a 23.252325,23.252325 0 0 0 23.25,-23.25 v -36.06641 a 23.252325,23.252325 0 0 0 -23.25,-23.25 h -19.72071 l -38.42382,-48.54297 33.73632,-46.30468 h 18.06055 a 23.252325,23.252325 0 0 0 23.25,-23.25 v -36.06641 a 23.252325,23.252325 0 0 0 -23.25,-23.25 H 738.4375 a 23.252325,23.252325 0 0 0 -10.5293,2.82226 23.252325,23.252325 0 0 0 -10.52929,-2.82226 H 622.875 606.66016 526.24805 a 23.252325,23.252325 0 0 0 -23.25,23.25 v 1.82812 l -8.19141,-13.73632 a 23.252325,23.252325 0 0 0 -19.9707,-11.3418 h -75.1543 -15.12305 -79.80078 a 23.252325,23.252325 0 0 0 -10.14258,2.71875 23.252325,23.252325 0 0 0 -10.14257,-2.71875 H 176.69531 a 23.252325,23.252325 0 0 0 -15.60742,7.09766 23.252325,23.252325 0 0 0 -15.60742,-7.09766 z m 49.759766,46.5 h 18.171875 a 23.252325,23.252325 0 0 0 -4.308594,12.81641 v 141.34765 a 23.252325,23.252325 0 0 0 4.308594,12.81641 H 76.933594 a 23.252325,23.252325 0 0 0 4.30664,-12.81641 v -141.34765 a 23.252325,23.252325 0 0 0 -4.30664,-12.81641 z m 145.494136,0 h 21.95899 a 23.252325,23.252325 0 0 0 -1.01758,24.85742 l 23.48633,38.79492 z m 123.32422,0 h 8.05078 l -5.07617,7.61719 a 23.252325,23.252325 0 0 0 -2.97461,-7.61719 z m 86.55274,0 h 29.32617 l 72.67578,121.87305 a 23.252325,23.252325 0 0 0 35.12109,4.71093 v 41.93164 h -11.44336 l -86.17187,-146.7539 a 23.252325,23.252325 0 0 0 -35.20117,-4.83789 v -4.10742 a 23.252325,23.252325 0 0 0 -4.30664,-12.81641 z m 140.91406,0 h 0.51562 a 23.252325,23.252325 0 0 0 -0.25781,0.25781 23.252325,23.252325 0 0 0 -0.25781,-0.25781 z m 82.49805,0 h 20.79882 a 23.252325,23.252325 0 0 0 2.16993,25.41406 l 32.05468,39.75 a 23.252325,23.252325 0 0 0 21.82813,7.82617 23.252325,23.252325 0 0 0 2.19531,24.39258 l 55.08789,69.59766 h -22.48047 a 23.252325,23.252325 0 0 0 -1.39062,-25.64063 l -33.75781,-43.73828 a 23.252325,23.252325 0 0 0 -22.57032,-8.07812 23.252325,23.252325 0 0 0 -2.5332,-23.10157 z m 122.68554,0 h 6.26368 l -4.75977,6.53125 a 23.252325,23.252325 0 0 0 -1.50391,-6.53125 z m -617.31445,28.96875 a 23.252325,23.252325 0 0 0 15.60742,7.09766 h 14.19922 l 20.14063,28.85546 h -33.34375 a 23.252325,23.252325 0 0 0 -23.25,23.25 v 42.74219 h -17.14454 v -94.84765 h 8.1836 a 23.252325,23.252325 0 0 0 15.60742,-7.09766 z m 224.55859,7.09766 h 4.46485 v 94.84765 h -5.55274 a 23.252325,23.252325 0 0 0 -18.53125,10.02149 23.252325,23.252325 0 0 0 -18.53125,-10.02149 h -6.79101 v -27.41797 z m 230.28125,0 h 6.94727 1.95508 l 34.93359,45.14257 -35.49414,49.70508 h -8.3418 z m -337.12695,44.69921 a 23.252325,23.252325 0 0 0 18.05469,6.94141 23.252325,23.252325 0 0 0 -2.65039,8.75195 v 57.70508 a 23.252325,23.252325 0 0 0 4.30859,12.81641 H 280.3418 a 23.252325,23.252325 0 0 0 4.30664,-12.81641 v -57.70508 a 23.252325,23.252325 0 0 0 -4.1836,-13.30859 z m 196.21289,38.28321 7.55078,12.85937 a 23.252325,23.252325 0 0 0 -3.70312,-0.99219 h -3.84766 z m 184.99805,41.83008 a 23.252325,23.252325 0 0 0 1.86719,6.10156 h -6.22461 z m -227.44922,5.84375 a 23.252325,23.252325 0 0 0 0.25781,0.25781 h -0.51562 a 23.252325,23.252325 0 0 0 0.25781,-0.25781 z"
       id="path18" />
    <path
       style="baseline-shift:baseline;display:inline;overflow:visible;vector-effect:none;fill-opacity:0.994;stroke-linecap:round;stroke-linejoin:round;paint-order:markers stroke fill;enable-background:accumulate;stop-color:#000000;stop-opacity:1"
       d="m 604.49273,-546.16445 v -36.06598 h 31.744 l 52.495,-73.51297 -52.495,-67.835 h -29.576 v -36.067 h 110.719 v 34.071 h -20.596 l 32.055,39.75 29.112,-39.75 h -19.513 v -34.07 h 95.544 v 36.066 h -29.887 l -51.1,70.137 56.365,71.21097 h 30.97 v 36.06598 h -114.28 v -34.68398 h 21.525 l -33.758,-43.73997 -32.054,43.73997 h 22.143 v 34.68498 z m -219.935,0 v -36.06598 h 28.803 V -723.5784 h -28.803 v -36.067 h 90.279 l 79.439,133.215 v -97.148 h -28.028 v -36.067 h 96.627 v 36.067 h -30.197 v 178.94895 h -48.004 l -92.911,-158.22995 v 120.62997 h 27.099 v 36.06498 z m -153.355,0 v -36.06598 h 30.196 v -57.70597 l -58.379,-83.642 h -26.324 v -36.067 h 107.776 v 36.067 h -21.214 l 31.59,52.18 32.054,-52.18 h -22.144 v -36.067 h 94.924 v 36.067 h -26.48 l -55.746,83.642 v 57.70597 h 30.04 v 36.06598 z m -204.02798,0 v -36.06598 h 30.815 V -723.5784 h -30.815 v -36.067 h 118.30598 v 36.067 h -31.43298 v 141.34797 h 63.64398 v -65.99297 h 41.964 v 102.05995 z"
       id="path19" />
  </g>
  <g
     stroke-width="3.1"
     id="g66134"
     style="fill:#000000;stroke:#fefefe;stroke-width:46.5;stroke-linecap:round;stroke-linejoin:round;stroke-dasharray:none;stroke-opacity:1;paint-order:markers stroke fill"
     transform="translate(21.55317,32.898586)">
    <g
       fill-opacity="0.994"
       id="g66130"
       style="fill:#000000;stroke:#fefefe;stroke-width:46.5;stroke-linecap:round;stroke-linejoin:round;stroke-dasharray:none;stroke-opacity:1;paint-order:markers stroke fill">
      <g
         id="path66128"
         style="opacity:1">
        <path
           style="baseline-shift:baseline;display:inline;overflow:visible;vector-effect:none;fill:#fefefe;fill-opacity:1;stroke:none;enable-background:accumulate;stop-color:#000000;stop-opacity:1"
           d="m 788.34961,15.986328 c -14.29895,0 -27.84474,5.769167 -37.97852,15.201172 -10.72867,-9.687677 -25.22487,-13.095703 -38.73632,-13.095703 h -30.38086 c -2.73086,0.233801 -5.39887,0.948578 -7.88086,2.111328 -2.48199,-1.16275 -5.15,-1.877527 -7.88086,-2.111328 h -53.92578 c -1.58974,0.253202 -3.14888,0.670806 -4.65235,1.246094 -1.50347,-0.575287 -3.06261,-0.992891 -4.65234,-1.246094 h -63.80078 c -1.39244,0.240326 -2.76008,0.607077 -4.08594,1.095703 -1.32403,-0.487619 -2.68969,-0.853712 -4.08008,-1.09375 h -21.07617 c -3.75525,0.07791 -7.43573,1.064378 -10.72656,2.875 -3.29183,-1.811913 -6.97373,-2.79907 -10.73047,-2.876953 h -21.07813 c -5.80938,0.287551 -11.30003,2.741933 -15.38867,6.878906 -9.172,-4.925694 -19.74243,-6.878906 -29.80273,-6.878906 h -30.38282 c -3.65267,0.09941 -7.2305,1.058276 -10.44335,2.798828 -3.21285,-1.740554 -6.79068,-2.699415 -10.44336,-2.798828 h -27.91211 c -5.591,0.221474 -10.91464,2.451621 -14.99414,6.28125 -4.0833,-3.831946 -9.41231,-6.061612 -15.00782,-6.279297 h -27.5332 c -12.84009,0.0013 -23.24872,10.409911 -23.25,23.25 v 123.88281 c 10e-4,12.84009 10.40991,23.24872 23.25,23.25 h 19.17773 c 2.91684,-0.21565 5.76682,-0.97966 8.4004,-2.25195 3.01403,1.43372 6.30139,2.20177 9.63867,2.25195 h 10.2539 c 3.45423,-0.0213 6.86031,-0.81194 9.97071,-2.31445 2.70207,1.32296 5.63519,2.10897 8.63672,2.31445 h 19.36914 c 3.65268,-0.0994 7.23051,-1.05828 10.44336,-2.79883 3.21285,1.74055 6.79068,2.69942 10.44335,2.79883 h 20.69727 c 12.84009,-0.001 23.24872,-10.40991 23.25,-23.25 v -28.07812 c 2.87722,-0.56758 5.70806,-1.3762 8.46289,-2.44727 0.21559,14.79901 4.23931,29.45501 14.4668,40.35742 10.51353,11.20735 25.90095,16.05079 40.59765,16.05078 14.65825,10e-6 29.87004,-4.95436 40.29883,-15.98632 0.11926,-0.12616 0.2144,-0.26734 0.33203,-0.39453 3.66782,8.19556 11.72651,13.54698 20.70313,13.74804 h 20.69726 c 5.85143,-0.28925 11.37802,-2.77666 15.47461,-6.96484 4.09708,4.18862 9.62445,6.67608 15.47657,6.96484 h 53.92578 c 2.73086,-0.2338 5.39887,-0.94858 7.88086,-2.11133 2.48199,1.16275 5.15,1.87753 7.88086,2.11133 h 20.69726 c 4.05148,-0.008 8.03055,-1.07449 11.54297,-3.09375 3.36785,1.93862 7.16785,3.00227 11.05273,3.09375 h 21.45704 c 4.71188,-0.19235 9.2539,-1.81285 13.02343,-4.64648 8.94684,4.97631 19.25434,7.45508 29.51172,7.45508 29.05121,0 55.33985,-24.2733 55.33985,-54.13477 0,-12.62037 -3.98157,-24.85564 -10.08985,-34.10742 -2.75355,-4.170621 -5.76422,-7.749045 -8.89453,-11.083986 10.81831,-2.702331 18.19524,-12.70405 17.58203,-23.83789 C 841.35878,53.917384 835.82875,40.370404 825.875,30.6875 815.92125,21.004596 802.06682,15.986328 788.34961,15.986328 Z m -373.65039,60.798828 1.40625,1.40625 -1.69531,1.695313 c -0.0175,-0.0114 -0.0333,-0.01585 -0.0508,-0.02734 v -2.867188 c 0.1148,-0.07241 0.22468,-0.13706 0.33985,-0.207031 z"
           id="path20"
           sodipodi:nodetypes="scsccccccccccccccscccccccccccccccccccccccssscccccccccccccsssccsscccccsc" />
        <path
           style="baseline-shift:baseline;display:inline;overflow:visible;vector-effect:none;stroke:none;enable-background:accumulate;stop-color:#000000;stop-opacity:1"
           d="m 284.775,165.227 h 19.178 V 86.966 c 0,-5.09 -0.38,-12.284 -1.33,-21.584 0.38,1.58 1.33,7.546 3.229,17.548 l 16.14,82.297 h 10.254 l 16.9,-82.297 c 0.759,-3.334 1.708,-9.125 3.227,-17.548 -1.139,10.88 -1.519,18.074 -1.519,21.584 v 78.261 h 19.369 V 41.342 H 342.31 l -12.913,68.786 c -1.139,5.966 -1.898,12.108 -1.898,18.425 0,-6.668 -0.57,-12.985 -1.71,-18.6 l -13.481,-68.61 h -27.533 z m 106.335,0 h 20.697 v -50.361 h 14.242 c 16.52,0 27.723,-13.512 27.723,-37.727 0,-25.268 -9.874,-35.797 -32.28,-35.797 H 391.11 Z M 411.807,97.143 V 59.241 h 7.406 c 10.444,0 13.482,4.387 13.482,18.249 0,14.389 -2.469,19.653 -12.723,19.653 z m 54.877,-55.801 v 92.124 c 0,22.636 11.393,34.393 31.9,34.393 20.128,0 31.711,-11.932 31.711,-33.866 v -92.65 h -21.077 v 95.984 c 0,7.545 -4.177,11.756 -10.443,11.756 -6.266,0 -11.014,-4.211 -11.014,-11.756 V 41.342 Z M 538.46,59.24 h 21.457 v 105.987 h 20.698 V 59.241 h 21.646 V 41.342 h -63.8 z m 73.106,105.987 h 53.927 v -18.6 h -33.23 v -37.025 h 23.926 V 91.703 H 632.263 V 59.241 h 33.23 V 41.342 h -53.927 z m 90.384,-52.116 h 9.875 l 12.722,52.116 h 21.457 l -15.19,-57.555 c 9.683,-6.318 13.101,-15.793 13.101,-30.533 0,-25.444 -9.874,-35.797 -32.28,-35.797 h -30.382 v 123.885 h 20.698 z m 0,-53.87 h 7.406 c 10.064,0 13.482,4.036 13.482,17.196 0,13.687 -2.658,18.776 -12.722,18.776 h -8.165 z m 52.409,74.576 c 0.95,21.759 14.051,34.218 34.18,34.218 18.418,0 32.09,-12.635 32.09,-30.884 0,-17.196 -8.925,-26.496 -23.166,-39.306 -11.773,-10.528 -20.698,-18.074 -20.698,-29.304 0,-7.02 4.558,-11.406 11.014,-11.406 7.595,0 10.633,4.738 11.393,15.442 l 20.127,-2.632 c -1.519,-19.302 -13.861,-30.708 -30.95,-30.708 -17.47,0 -32.091,13.16 -32.091,31.059 0,16.319 10.633,26.496 25.634,40.359 11.013,10.177 18.609,16.494 18.609,26.847 0,7.195 -5.127,11.932 -12.722,11.932 -8.735,0 -12.913,-5.966 -13.672,-18.424 z"
           id="path21" />
      </g>
    </g>
    <g
       id="path66132"
       style="opacity:1">
      <path
         style="baseline-shift:baseline;display:inline;overflow:visible;vector-effect:none;fill:#fefefe;stroke:none;enable-background:accumulate;stop-color:#000000;stop-opacity:1"
         d="m 114.75,15.460938 c -14.763118,0 -29.523782,4.652069 -40.126953,14.953124 -10.603172,10.301056 -15.59375,25.077354 -15.59375,39.53125 V 133.4668 c 0,15.02352 3.720901,30.09744 14.175781,41.4414 10.45488,11.34396 25.97929,16.20118 40.785152,16.20117 14.65825,10e-6 29.84441,-4.92213 40.32422,-15.9121 10.47981,-10.98998 14.82617,-26.07865 14.82617,-41.20508 V 121.00781 A 23.252325,23.252325 0 0 0 158.34766,101.70703 23.252325,23.252325 0 0 0 169.14062,82.402344 V 70.470703 c 0,-14.783956 -5.00234,-29.484983 -15.32421,-39.814453 C 143.49453,20.32678 128.99574,15.460938 114.75,15.460938 Z"
         id="path22" />
      <path
         style="baseline-shift:baseline;display:inline;overflow:visible;vector-effect:none;fill-opacity:0.994;stroke:none;enable-background:accumulate;stop-color:#000000;stop-opacity:1"
         d="m 82.28,133.466 c 0,22.636 10.823,34.393 31.71,34.393 20.128,0 31.9,-11.932 31.9,-33.866 v -12.985 h -21.266 v 16.845 c 0,8.598 -3.608,12.985 -10.634,12.985 -7.026,0 -10.634,-4.387 -10.634,-12.985 V 68.716 c 0,-8.598 3.608,-12.81 10.634,-12.81 7.026,0 10.634,4.212 10.634,12.81 v 13.687 h 21.267 V 70.471 c 0,-20.004 -12.343,-31.76 -31.141,-31.76 -20.508,0 -32.47,11.932 -32.47,31.234 z"
         id="path23" />
    </g>
  </g>
  <path
     style="baseline-shift:baseline;display:inline;overflow:visible;opacity:0.98;vector-effect:none;fill:#fffdfd;stroke:none;stroke-width:46.5;stroke-linecap:round;stroke-linejoin:round;stroke-dasharray:none;stroke-opacity:1;paint-order:markers stroke fill;enable-background:accumulate;stop-color:#000000"
     d="m 1368.2798,154.41178 a 23.25234,23.25234 0 0 0 -20.3125,12.29101 23.25234,23.25234 0 0 0 -12.25,20.30274 v 102.28125 a 23.25234,23.25234 0 0 0 12.2674,20.30664 23.25234,23.25234 0 0 0 20.2951,12.22461 h 102.2754 a 23.25234,23.25234 0 0 0 20.2949,-12.22461 23.25234,23.25234 0 0 0 12.2676,-20.30664 V 187.00553 a 23.25234,23.25234 0 0 0 -12.2189,-20.29297 23.25234,23.25234 0 0 0 -20.3144,-12.30078 z m 23.2382,55.80664 h 55.7989 v 55.79492 h -55.7989 z"
     id="path14" />
  <path
     style="baseline-shift:baseline;display:inline;overflow:visible;opacity:0.98;vector-effect:none;stroke:none;stroke-width:46.5;stroke-linecap:round;stroke-linejoin:round;stroke-dasharray:none;stroke-opacity:1;paint-order:markers stroke fill;enable-background:accumulate;stop-color:#000000"
     d="m 1368.2792,177.66273 v 9.306 h 102.288 v 102.294 h -102.3 v -102.258 h -9.3 v 102.282 h 9.312 v 9.282 h 102.276 v -9.282 h 9.312 v -102.282 h -9.282 v -9.342 z m -0.012,9.342 h 0.012 v -0.036 h -0.012 z"
     id="path15" />
  <path
     style="baseline-shift:baseline;display:inline;overflow:visible;opacity:0.98;fill:#21b04b;stroke:none;stroke-width:0;stroke-linecap:round;stroke-linejoin:round;stroke-dasharray:none;stroke-opacity:1;paint-order:fill markers stroke;enable-background:accumulate;stop-color:#000000"
     d="m 1368.2671,186.96873 v 102.294 h 102.3 v -102.294 z"
     id="path13" />
  <path
     style="baseline-shift:baseline;display:inline;overflow:visible;opacity:0.98;vector-effect:none;stroke-linecap:round;stroke-linejoin:round;paint-order:markers stroke fill;enable-background:accumulate;stop-color:#000000"
     d="m 1254.348,23.249686 v 9.3 h 102.288 V 134.84969 h -102.3 V 32.586686 h -9.3 V 134.87469 h 9.312 v 9.276 h 102.276 v -9.276 h 9.312 V 68.932526 32.586686 h -9.276 v -9.337 z m -0.013,9.336 h 0.013 v -0.036 h -0.013 z"
     id="path11" />
  <path
     style="baseline-shift:baseline;display:inline;overflow:visible;vector-effect:none;stroke-linecap:round;stroke-linejoin:round;paint-order:markers stroke fill;enable-background:accumulate;stop-color:#000000"
     d="m 283.24315,201.86015 c -25.5129,-54.727 -46.6859,-99.689 -47.0509,-99.914 -0.365,-0.226 -14.889,30.065 -32.27407,67.312 l -31.609,67.723 -74.53,0.257 -74.53,0.256 v -10 l 70.53,-0.256 70.528,-0.257 35.84,-76.781 35.84007,-76.781974 46.7599,100.281974 c 25.72,55.155 46.832,100.372 46.917,100.483 0.085,0.111 5.55,-11.364 12.145,-25.5 l 11.99,-25.702 294.225,-0.251 294.22503,-0.252 v 10 l -290.19603,0.252 -290.195,0.251 -7.055,15.018 c -13.639,29.035 -17.335,37.097 -20.523,44.753 -1.769,4.249 -3.539,7.925 -3.933,8.169 -0.394,0.244 -21.591,-44.334 -47.104,-99.061 z m 815.00605,25.621 v -5 h 246 v 10 h -246 z m 402,0 v -5 h 15 v 10 h -15 z"
     id="path2" />
  <g
     id="g9"
     transform="translate(12.514799,279.19427)">
    <g
       id="path66144"
       inkscape:transform-center-x="13.557559"
       inkscape:transform-center-y="70.047388"
       style="opacity:0.98">
      <path
         style="baseline-shift:baseline;display:inline;overflow:visible;vector-effect:none;fill:#fffdfd;stroke-linecap:round;stroke-linejoin:round;paint-order:markers stroke fill;enable-background:accumulate;stop-color:#000000;stop-opacity:1"
         d="m 1042.0664,-234.63672 a 23.252325,23.252325 0 0 0 -20.3105,12.2832 23.252325,23.252325 0 0 0 -12.252,20.30274 v 102.287108 a 23.252325,23.252325 0 0 0 12.2695,20.306641 23.252325,23.252325 0 0 0 20.293,12.220703 h 102.2754 a 23.252325,23.252325 0 0 0 20.293,-12.220703 23.252325,23.252325 0 0 0 12.2695,-20.306641 V -202.05078 a 23.252325,23.252325 0 0 0 -12.2207,-20.29492 23.252325,23.252325 0 0 0 -20.3125,-12.29102 z m 23.2383,55.79883 h 55.7988 v 55.80078 h -55.7988 z"
         id="path24" />
      <path
         style="baseline-shift:baseline;display:inline;overflow:visible;vector-effect:none;stroke-linecap:round;stroke-linejoin:round;paint-order:markers stroke fill;enable-background:accumulate;stop-color:#000000;stop-opacity:1"
         d="m 1042.066,-211.38708 v 9.29999 h 102.288 v 102.299954 h -102.3 V -202.05109 h -9.3 v 102.287954 h 9.312 v 9.276014 h 102.276 v -9.276014 h 9.312 V -202.05109 h -9.282 v -9.33599 z m -0.012,9.33599 h 0.012 v -0.036 h -0.012 z"
         id="path25" />
    </g>
    <path
       d="m 1042.3552,-203.60074 h 102.173 v 102.71701 h -102.173 z"
       fill="#fef100"
       id="path66142"
       style="opacity:0.98;stroke:none;stroke-width:46.5;stroke-linecap:round;stroke-linejoin:round;stroke-dasharray:none;stroke-opacity:1;paint-order:markers stroke fill"
       inkscape:transform-center-x="232.73809"
       inkscape:transform-center-y="-85.864539" />
  </g>
</svg>
