<?xml version="1.0" encoding="UTF-8" standalone="no"?>
<!-- Created by ERK -->

<svg
   width="1122.2985mm"
   height="235.33344mm"
   viewBox="0 0 1122.2984 235.33343"
   version="1.1"
   id="svg1"
   inkscape:version="1.4.3 (0d15f75042, 2025-12-25)"
   xml:space="preserve"
   sodipodi:docname="gzdoom.svg"
   xmlns:inkscape="http://www.inkscape.org/namespaces/inkscape"
   xmlns:sodipodi="http://sodipodi.sourceforge.net/DTD/sodipodi-0.dtd"
   xmlns:xlink="http://www.w3.org/1999/xlink"
   xmlns="http://www.w3.org/2000/svg"
   xmlns:svg="http://www.w3.org/2000/svg"><sodipodi:namedview
     id="namedview1"
     pagecolor="#b5b5b5"
     bordercolor="#000000"
     borderopacity="0.25"
     inkscape:showpageshadow="2"
     inkscape:pageopacity="0.0"
     inkscape:pagecheckerboard="false"
     inkscape:deskcolor="#d1d1d1"
     inkscape:document-units="mm"
     inkscape:zoom="0.20589839"
     inkscape:cx="2139.4048"
     inkscape:cy="398.2547"
     inkscape:window-width="1920"
     inkscape:window-height="1080"
     inkscape:window-x="0"
     inkscape:window-y="0"
     inkscape:window-maximized="0"
     inkscape:current-layer="svg1" /><defs
     id="defs1"><linearGradient
       id="linearGradient1662"
       inkscape:collect="always"><stop
         style="stop-color:#818282;stop-opacity:1;"
         offset="0"
         id="stop1662" /><stop
         style="stop-color:#cacaca;stop-opacity:1;"
         offset="1"
         id="stop1663" /></linearGradient><clipPath
       clipPathUnits="userSpaceOnUse"
       id="clipPath5"><path
         id="path1026"
         style="stroke-width:0.1;stroke-linecap:square;paint-order:markers fill stroke;stop-color:#000000"
         d="M 438.25066,553.76374 H 1298.1212 V 755.15928 H 438.25066 Z"
         sodipodi:nodetypes="ccccc" /></clipPath><clipPath
       clipPathUnits="userSpaceOnUse"
       id="clipPath1010"><path
         id="path1010"
         style="stroke-width:0.0999999;stroke-linecap:square;paint-order:markers fill stroke;stop-color:#000000"
         d="m 1691.1994,-792.32001 h 1634.8919 v 92.82806 H 1691.1994 Z" /></clipPath><clipPath
       clipPathUnits="userSpaceOnUse"
       id="clipPath54"><path
         id="path54"
         style="stroke-width:0.0999999;stroke-linecap:square;paint-order:markers fill stroke;stop-color:#000000"
         d="m 1691.1994,-792.32001 h 1634.8919 v 92.82806 H 1691.1994 Z" /></clipPath><clipPath
       clipPathUnits="userSpaceOnUse"
       id="clipPath15"><rect
         style="fill:none;stroke:#000000;stroke-linecap:butt;stroke-linejoin:bevel;paint-order:stroke markers fill;stop-color:#000000"
         id="rect15-7"
         width="45.034248"
         height="38.955639"
         x="262.48285"
         y="121.00073" /></clipPath><linearGradient
       id="linearGradient9"
       inkscape:collect="always"><stop
         style="stop-color:#0b3d7b;stop-opacity:1;"
         offset="0"
         id="stop9" /><stop
         style="stop-color:#125bb6;stop-opacity:1;"
         offset="0.39153045"
         id="stop11" /><stop
         style="stop-color:#125bb4;stop-opacity:1;"
         offset="0.61664188"
         id="stop12" /><stop
         style="stop-color:#072957;stop-opacity:1;"
         offset="1"
         id="stop10" /></linearGradient><marker
       id="DistanceX"
       orient="auto"
       refX="0"
       refY="0"
       style="overflow:visible"><path
         d="M 3,-3 -3,3 M 0,-5 V 5"
         style="stroke:#000000;stroke-width:0.5"
         id="path1" /></marker><pattern
       id="Hatch"
       patternUnits="userSpaceOnUse"
       width="8"
       height="8"
       x="0"
       y="0"
       inkscape:label="Hatch"><path
         d="M8 4 l-4,4"
         stroke="#000000"
         stroke-width="0.25"
         linecap="square"
         id="path2" /><path
         d="M6 2 l-4,4"
         stroke="#000000"
         stroke-width="0.25"
         linecap="square"
         id="path3" /><path
         d="M4 0 l-4,4"
         stroke="#000000"
         stroke-width="0.25"
         linecap="square"
         id="path4" /></pattern><symbol
       id="*Model_Space" /><symbol
       id="*Paper_Space" /><symbol
       id="*Paper_Space0" /><linearGradient
       inkscape:collect="always"
       xlink:href="#linearGradient9"
       id="linearGradient10"
       x1="715.99036"
       y1="21.586351"
       x2="715.99036"
       y2="192.7619"
       gradientUnits="userSpaceOnUse" /><radialGradient
       inkscape:collect="always"
       xlink:href="#linearGradient1662"
       id="radialGradient1663"
       cx="134.71568"
       cy="46.767887"
       fx="134.71568"
       fy="46.767887"
       r="162.65025"
       gradientTransform="matrix(-0.14598396,-0.22247957,0.79596275,-0.52228533,97.442213,171.62745)"
       gradientUnits="userSpaceOnUse"
       spreadMethod="reflect" /><linearGradient
       inkscape:collect="always"
       xlink:href="#linearGradient9"
       id="linearGradient1663"
       gradientUnits="userSpaceOnUse"
       x1="715.99036"
       y1="21.586351"
       x2="715.99036"
       y2="192.7619" /><linearGradient
       inkscape:collect="always"
       xlink:href="#linearGradient9"
       id="linearGradient1664"
       gradientUnits="userSpaceOnUse"
       x1="715.99036"
       y1="21.586351"
       x2="715.99036"
       y2="192.7619" /><linearGradient
       inkscape:collect="always"
       xlink:href="#linearGradient9"
       id="linearGradient1665"
       gradientUnits="userSpaceOnUse"
       x1="715.99036"
       y1="21.586351"
       x2="715.99036"
       y2="192.7619" /><linearGradient
       inkscape:collect="always"
       xlink:href="#linearGradient9"
       id="linearGradient1666"
       gradientUnits="userSpaceOnUse"
       x1="715.99036"
       y1="21.586351"
       x2="715.99036"
       y2="192.7619" /><marker
       id="DistanceX-0"
       orient="auto"
       refX="0"
       refY="0"
       style="overflow:visible"><path
         d="M 3,-3 -3,3 M 0,-5 V 5"
         style="stroke:#000000;stroke-width:0.5"
         id="path1-9" /></marker><pattern
       id="Hatch-4"
       patternUnits="userSpaceOnUse"
       width="8"
       height="8"
       x="0"
       y="0"><path
         d="M8 4 l-4,4"
         stroke="#000000"
         stroke-width="0.25"
         linecap="square"
         id="path2-8" /><path
         d="M6 2 l-4,4"
         stroke="#000000"
         stroke-width="0.25"
         linecap="square"
         id="path3-8" /><path
         d="M4 0 l-4,4"
         stroke="#000000"
         stroke-width="0.25"
         linecap="square"
         id="path4-2" /></pattern><symbol
       id="*Model_Space-4" /><symbol
       id="*Paper_Space-5" /><symbol
       id="*Paper_Space0-5" /><marker
       id="DistanceX-1"
       orient="auto"
       refX="0"
       refY="0"
       style="overflow:visible"><path
         d="M 3,-3 -3,3 M 0,-5 V 5"
         style="stroke:#000000;stroke-width:0.5"
         id="path1-4" /></marker><pattern
       id="Hatch-2"
       patternUnits="userSpaceOnUse"
       width="8"
       height="8"
       x="0"
       y="0"><path
         d="M8 4 l-4,4"
         stroke="#000000"
         stroke-width="0.25"
         linecap="square"
         id="path2-3" /><path
         d="M6 2 l-4,4"
         stroke="#000000"
         stroke-width="0.25"
         linecap="square"
         id="path3-2" /><path
         d="M4 0 l-4,4"
         stroke="#000000"
         stroke-width="0.25"
         linecap="square"
         id="path4-21" /></pattern><symbol
       id="*Model_Space-6" /><symbol
       id="*Paper_Space-8" /><symbol
       id="*Paper_Space0-57" /><filter
       inkscape:collect="always"
       style="color-interpolation-filters:sRGB"
       id="filter51"
       x="-0.0035413632"
       y="-0.017313339"
       width="1.0070827"
       height="1.0346267"><feGaussianBlur
         inkscape:collect="always"
         stdDeviation="4.0488703"
         id="feGaussianBlur51" /></filter></defs><path
     style="baseline-shift:baseline;display:inline;overflow:visible;vector-effect:none;fill:#ffffff;stroke-linecap:round;paint-order:markers stroke fill;enable-background:accumulate;stop-color:#000000"
     d="m 953.14802,0.01312604 c -1.47317,0.032 -2.94081,0.12769 -4.39844,0.28906 -2.90619,0.32177 -5.79435,0.90232996 -8.62891,1.75975996 -1.41702,0.42865 -2.81734,0.92537 -4.19726,1.48828 -0.69141,0.28205 -1.37192,0.57833 -2.04297,0.88868 -0.67312,0.31128 -1.33409,0.63504 -1.98242,0.9707 -2.60009,1.34619 -5.04392,2.90134 -7.33399,4.61914 -0.57308,0.42986 -1.13733,0.87066 -1.6914,1.32031 -0.55248,0.44836 -1.09706,0.90844 -1.63477,1.37891 -1.06978,0.93598 -2.09196,1.89866 -3.07031,2.88281 -1.95602,1.96757 -3.75024,4.0313 -5.40625,6.16016 -1.08586,1.3959 -2.05277,2.90364 -3.04492,4.38672 -11.97677,-14.95807 -30.14201,-23.87499 -49.53321,-23.875 H 780.357 c -21.59908,1e-5 -41.74674,10.99737 -53.42969,29.16406 -0.58505,0.90974 -1.09192,1.86595 -1.6582,2.78711 -0.56611,-0.92087 -1.07138,-1.87765 -1.65625,-2.78711 C 711.92989,13.280006 691.78215,2.282676 670.18317,2.282656 H 590.357 c -21.59911,1e-5 -41.74675,10.99738 -53.42969,29.16406 -1.72213,2.67787 -3.20416,5.49438 -4.76172,8.26758 C 518.64928,15.450856 493.0347,0.33338604 465.22614,0.33343604 H 89.798412 c -33.520266,-5e-5 -63.803416,20.24083996 -76.62305,51.21288996 -17.5671494,42.44196 -17.5671494,90.132264 0,132.574224 12.819651,30.97208 43.102908,51.21291 76.62305,51.21289 H 465.22614 c 27.80855,3e-5 53.42314,-15.11742 66.93945,-39.38086 1.5577,2.77342 3.03944,5.58946 4.76172,8.26758 11.68255,18.16606 31.83105,29.16383 53.42969,29.16406 h 79.82617 c 21.59926,4.3e-4 41.74677,-10.99742 53.42969,-29.16406 0.58485,-0.90943 1.09015,-1.86628 1.65625,-2.78711 0.56627,0.92111 1.07318,1.8774 1.6582,2.78711 11.68291,18.16662 31.83033,29.1645 53.42969,29.16406 h 79.82617 c 13.95535,2.8e-4 27.26498,-4.64545 38.11719,-12.79492 v 14.74414 h 104.00004 v -26.60742 l 7.998,11.42187 8,-11.42383 v 26.60938 h 104 V 68.726016 c -10e-5,-1.39931 -3e-4,-2.82587 -0.012,-4.27735 v -0.0137 -0.0156 c -0.016,-1.48916 -0.052,-3.01779 -0.1309,-4.58399 v -0.002 c -0.1593,-3.13349 -0.4874,-6.36296 -1.1152,-9.65625 -0.3132,-1.64217 -0.696,-3.27522 -1.1485,-4.89844 -0.4526,-1.62385 -0.9736,-3.23174 -1.5527,-4.80469 -1.1545,-3.13577 -2.5332,-6.12028 -4.0898,-8.96093 -1.5579,-2.84267 -3.3028,-5.55872 -5.2071,-8.14844 -0.9549,-1.29863 -1.9623,-2.58041 -3.0273,-3.83985 -0.5328,-0.63005 -1.0801,-1.25373 -1.6406,-1.86914 -0.5595,-0.61418 -1.1311,-1.2191 -1.7149,-1.8125 -2.3373,-2.37563 -4.8935,-4.59676 -7.6914,-6.59179 v -0.002 c -0.6993,-0.49861 -1.4158,-0.98458 -2.1485,-1.45507 -0.7361,-0.4727 -1.4866,-0.9282 -2.25,-1.36524 -1.5274,-0.87434 -3.0993,-1.67025 -4.7129,-2.37891 -1.615,-0.70931 -3.275,-1.33296 -4.9726,-1.86328 -0.8483,-0.26499 -1.7068,-0.50634 -2.5762,-0.72461 -0.8671,-0.21768 -1.7418,-0.41107 -2.6211,-0.58006996 -3.5078,-0.67421 -7.0256,-0.94749 -10.5019,-0.86914 -1.7426,0.0392 -3.4876,0.16797 -5.2286,0.38476 -1.7402,0.21671 -3.4571,0.52018 -5.1464,0.90429996 -3.369,0.766 -6.6717,1.86285 -9.8653,3.30078 -0.803,0.36154 -1.5966,0.74255 -2.3789,1.14453 -0.7839,0.40277 -1.5539,0.82551 -2.3105,1.26563 -1.521,0.88483 -2.9826,1.8427 -4.3828,2.86523 -1.4014,1.02342 -2.7403,2.11112 -4.0196,3.25 -0.6387,0.56861 -1.2643,1.15114 -1.8769,1.74805 -0.6116,0.59585 -1.2047,1.20151 -1.7813,1.8125 v 0 c -2.309,2.44689 -4.3295,4.98626 -6.1641,7.52148 -0.917,1.26725 -1.7806,2.52413 -2.6074,3.75781 v 0 c -0.8295,1.2379 -1.607,2.43043 -2.3554,3.5586 l -6.7637,10.1914 -6.7656,-10.19336 v -0.002 c -0.6169,-0.92869 -1.2547,-1.90288 -1.9258,-2.91211 -0.6706,-1.00848 -1.3648,-2.03748 -2.09379,-3.07812 -1.4594,-2.08337 -3.0324,-4.17863 -4.7753,-6.23438 -1.7415,-2.05382 -3.6452,-4.0574 -5.752,-5.95508 -1.0542,-0.94953 -2.1588,-1.87148 -3.3164,-2.75781 -1.1587,-0.88711 -2.3551,-1.72835 -3.5899,-2.51562 -2.4658,-1.57224 -5.0487,-2.91249 -7.7148,-4.02735 -1.3387,-0.55979 -2.7034,-1.06398 -4.0918,-1.51172 -1.3894,-0.44806 -2.7882,-0.83424 -4.1934,-1.16211 -2.8074,-0.65509996 -5.66724,-1.07977996 -8.55659,-1.26366996 -1.44776,-0.0922 -2.90704,-0.12373 -4.375,-0.0918 z m 0.43554,19.99413996 c 0.89444,-0.0195 1.78388,2.2e-4 2.66992,0.0566 1.77845,0.11318 3.5311,0.37285 5.28125,0.78125 0.87377,0.20387 1.74104,0.44382 2.59958,0.7207 0.8596,0.27721 1.6979,0.58577 2.5157,0.92773 v 0.002 c 1.6468,0.68864 3.1972,1.49675 4.6757,2.43945 0.7375,0.47019 1.4684,0.98023 2.1856,1.5293 0.7181,0.54983 1.4134,1.12901 2.0898,1.73828 1.3544,1.21992 2.6395,2.56493 3.8828,4.03125 1.2413,1.46408 2.4494,3.0618 3.6485,4.77344 0.6004,0.85707 1.2047,1.75201 1.8203,2.67773 0.6151,0.92498 1.2511,1.89545 1.9199,2.90234 l 23.42579,35.29688 23.4297,-35.29883 v -0.002 c 0.8067,-1.21608 1.5684,-2.38183 2.3047,-3.48047 0.7388,-1.10243 1.4682,-2.16063 2.1972,-3.16797 1.4578,-2.01444 2.943,-3.86109 4.5079,-5.51953 v -0.002 c 0.3917,-0.41506 0.7918,-0.82175 1.1933,-1.21289 0.4007,-0.39042 0.8069,-0.76818 1.2188,-1.13477 0.8217,-0.73152 1.6585,-1.40922 2.5156,-2.03516 0.8584,-0.62684 1.7381,-1.20312 2.6445,-1.73047 0.4572,-0.26596 0.9217,-0.52072 1.3945,-0.76367 0.4744,-0.24374 0.9623,-0.47805 1.4493,-0.69726 1.9658,-0.88512 3.984,-1.55636 6.0898,-2.03516 1.0479,-0.23826 2.1076,-0.42655 3.1836,-0.56055 1.0752,-0.13389 2.143,-0.21041 3.207,-0.23437 2.1369,-0.0482 4.2105,0.11678 6.2754,0.51367 0.5139,0.0988 1.0267,0.2122 1.5274,0.33789 0.4984,0.12514 0.9918,0.26472 1.4824,0.41797 0.9801,0.30618 1.9422,0.66662 2.8926,1.08398 0.9513,0.4178 1.8891,0.89197 2.8183,1.42383 0.4651,0.26626 0.9294,0.54795 1.3809,0.83789 0.4541,0.29164 0.9009,0.59438 1.3437,0.91016 v 0 c 1.7732,1.26424 3.4441,2.70886 5.0449,4.33594 0.4008,0.40744 0.7976,0.82383 1.1875,1.25195 v 0.002 c 0.3888,0.42687 0.7755,0.86645 1.1543,1.31446 0.7582,0.89668 1.4845,1.822 2.1856,2.77539 1.4077,1.91436 2.6688,3.88032 3.7812,5.91015 1.1134,2.03183 2.0691,4.10796 2.8613,6.25977 0.3943,1.07083 0.7515,2.17592 1.0547,3.26367 0.3034,1.0884 0.5584,2.18043 0.7676,3.27734 0.4163,2.18431 0.6634,4.48841 0.7871,6.92188 0.061,1.21706 0.093,2.47996 0.1074,3.78711 0.01,1.33635 0.01,2.70249 0.01,4.09375 V 215.33339 h -64 v -70.03906 l -28,39.98632 -27.99809,-39.98632 v 70.03906 h -63.99995 l -0.002,-58.23047 -18.61524,31.60351 c -0.93351,1.58477 -1.89672,3.14983 -2.89062,4.69532 -8.01642,12.46533 -21.7892,19.98272 -36.60938,19.98242 h -79.82617 c -14.82028,3e-4 -28.59294,-7.51707 -36.60937,-19.98242 -3.52797,-5.4859 -6.66678,-11.21264 -9.39454,-17.13672 l -9.08398,-19.72656 -9.08203,19.72656 c -2.72776,5.92408 -5.86657,11.65082 -9.39453,17.13672 -8.01642,12.46531 -21.78923,19.98271 -36.60938,19.98242 h -79.82617 c -14.82032,3e-4 -28.59098,-7.51706 -36.60742,-19.98242 -4.92717,-7.66163 -9.09419,-15.78761 -12.43945,-24.25977 l -9.37891,-23.7539 -9.24414,23.80859 c -2.21289,5.69948 -4.79162,11.24991 -7.7207,16.61719 -9.93991,18.21398 -28.99033,29.51955 -49.74024,29.51953 H 89.798412 c -25.48672,1e-5 -48.397365,-15.31232 -58.144534,-38.86133 -15.542832,-37.55124 -15.542832,-79.726104 0,-117.277344 9.747186,-23.54906 32.657944,-38.86137 58.144534,-38.86133 H 465.22614 c 20.74992,-4e-5 39.80033,11.30554 49.74024,29.51953 2.92896,5.36706 5.50774,10.91948 7.7207,16.61914 l 9.24414,23.80664 9.37891,-23.75391 c 3.34531,-8.47227 7.51239,-16.5983 12.43945,-24.25976 8.0164,-12.4653 21.78683,-19.98242 36.60742,-19.98242 h 79.82617 c 14.82041,10e-6 28.59301,7.51717 36.60938,19.98242 3.52781,5.48567 6.66669,11.21244 9.39453,17.13672 l 9.08203,19.72656 9.08398,-19.72656 c 2.72785,-5.92428 5.86672,-11.65105 9.39454,-17.13672 8.01639,-12.46529 21.78881,-19.98242 36.60937,-19.98242 h 79.82617 c 14.82045,0 28.593,7.51715 36.60938,19.98242 1.85449,2.88369 3.60206,5.83573 5.24023,8.84961 l 11.25586,20.70898 7.06836,-22.48437 c 0.564,-1.79369 1.24875,-3.55292 2.05273,-5.29102 0.40205,-0.86914 0.83424,-1.73353 1.29493,-2.58984 0.46107,-0.85705 0.95356,-1.70984 1.46875,-2.54688 1.03767,-1.68593 2.16139,-3.30176 3.37304,-4.85937 1.20371,-1.5474 2.46681,-2.99406 3.80469,-4.33985 0.66857,-0.67253 1.35143,-1.31634 2.05469,-1.93164 h 0.002 c 0.34879,-0.30517 0.70624,-0.60846 1.06836,-0.90234 0.36055,-0.2926 0.72255,-0.57557 1.08789,-0.84961 h 0.002 c 1.46353,-1.0978 2.96434,-2.04817 4.52735,-2.85742 0.39248,-0.2032 0.78622,-0.39722 1.18164,-0.58008 0.39744,-0.18381 0.80085,-0.35934 1.20312,-0.52344 0.80734,-0.32934 1.61742,-0.61638 2.4336,-0.86328 1.63186,-0.49362 3.30159,-0.83107 5.03906,-1.02344 0.86437,-0.0957 1.74338,-0.15447 2.63281,-0.17382 z m -348.36914,60.73046 c -4.56583,4.6e-4 -8.6691,3.0311 -10.02344,7.37891 h -0.002 c -0.56592,1.8177 -0.85413,3.7133 -0.85351,5.62305 v 48.189454 c -4.2e-4,1.9091 0.28777,3.80397 0.85351,5.62109 h 0.002 c 1.35456,4.34853 5.4574,7.37912 10.02344,7.37891 h 50.11133 c 4.56623,2.1e-4 8.67075,-3.03011 10.02539,-7.37891 0.56737,-1.82234 0.85379,-3.71757 0.85352,-5.62109 V 93.737726 c 2.7e-4,-1.90351 -0.28616,-3.79879 -0.85352,-5.62109 -1.35461,-4.34871 -5.45858,-7.37932 -10.02539,-7.37891 h -50.10937 z m 190,0 c -4.5661,2.5e-4 -8.6691,3.0309 -10.02344,7.37891 h -0.002 c -0.56702,1.8213 -0.85407,3.71753 -0.85351,5.62305 v 48.187504 0.002 c -3.6e-4,1.90487 0.28667,3.80038 0.85351,5.62109 h 0.002 c 1.35456,4.34873 5.45908,7.37933 10.0254,7.37891 h 50.10937 c 4.56651,4.2e-4 8.67084,-3.03018 10.02539,-7.37891 0.566,-1.81793 0.85368,-3.71377 0.85352,-5.62109 v -0.002 -48.187504 -0.002 c 1.6e-4,-1.90731 -0.28753,-3.80319 -0.85352,-5.62109 -1.35433,-4.34801 -5.4591,-7.37866 -10.02539,-7.37891 h -50.10937 z m -665.91406,0.59571 -33.400388,0.002 c -5.21386,-2.3e-4 -9.76035,4.01082 -10.41602,9.17774 -0.15895,1.25259 -0.21884,2.5153 -0.17968,3.77539 l -0.006,-0.31055 v 47.710944 l 0.006,-0.31055 c -0.0393,1.26089 0.0208,2.52334 0.17968,3.77539 0.65447,5.15709 5.19849,9.1795 10.41407,9.17969 h 33.402338 z m 63,0 v 55.625004 l 66.29102,-55.625004 z m 231.49805,0 v 73.000004 h 33.41601 c 3.86841,0.001 7.47857,-2.16532 9.29102,-5.60352 1.44909,-2.7484 2.20659,-5.80584 2.20703,-8.91015 v -0.002 -43.968754 -0.002 c -4.4e-4,-3.10432 -0.75833,-6.1625 -2.20703,-8.91016 -1.81346,-3.44012 -5.42536,-5.60206 -9.28516,-5.60351 h -0.002 z m -63.5,5.38476 -80.58399,67.615244 h 80.58399 z m 254.03711,14.019534 h 31.86914 v 34.19141 h -31.86914 z m 190,0 h 31.86914 v 34.19141 h -31.86914 z m -695.03516,0.59571 v 33 h -4.00195 v -32.99805 z m 334.49805,0 h 4.91406 v 33 h -4.91406 z m -103.5,28.27344 v 4.72656 h -5.63282 z"
     id="path10" /><path
     d="m 954.95375,7.5888392 c -1.18128,0.02566 -2.3546,0.1029784 -3.51554,0.2315104 -2.32185,0.257064 -4.60049,0.7166291 -6.8337,1.3921634 -1.1166,0.33777 -2.22193,0.729504 -3.31556,1.175639 -0.54684,0.223065 -1.08942,0.45934 -1.62367,0.706416 -0.53427,0.247073 -1.0614,0.505719 -1.58181,0.775147 -2.08155,1.077719 -4.05463,2.330478 -5.93143,3.738273 -0.46921,0.351948 -0.93226,0.71356 -1.38957,1.084688 -0.4573,0.371126 -0.90964,0.752159 -1.35289,1.139982 -0.88652,0.775642 -1.73969,1.579266 -2.56315,2.407605 -1.64695,1.65668 -3.17555,3.412199 -4.60541,5.250326 -1.42986,1.838127 -2.76442,3.755941 -3.99717,5.758821 -0.61637,1.00144 -1.20405,2.021229 -1.75803,3.050977 -0.55399,1.029748 -1.07562,2.072262 -1.56373,3.127458 -0.9762,2.110391 -1.81869,4.272504 -2.51613,6.49056 -1.75498,-3.228777 -3.62791,-6.392223 -5.61567,-9.483143 -9.84967,-15.315994 -26.81027,-24.57368 -45.02,-24.573693 h -79.8251 c -18.20982,1.3e-5 -35.17032,9.257699 -45.01999,24.573693 -3.78034,5.878332 -7.1445,12.014379 -10.0676,18.362704 C 723.9345,46.449641 720.57034,40.313594 716.79,34.435262 706.94033,19.119276 689.9797,9.861592 671.77001,9.861569 h -79.82459 c -18.20985,1.3e-5 -35.17032,9.257699 -45.01999,24.573693 -5.27969,8.209786 -9.74409,16.916502 -13.3289,25.995313 C 531.22761,54.32923 528.46675,48.387239 525.3314,42.641997 513.64745,21.232199 491.20416,7.9122941 466.81352,7.9123337 H 91.386316 C 61.882876,7.9122971 35.285724,25.688832 24.002315,52.949378 c -16.5549894,39.996604 -16.5549894,84.929622 0,124.926222 11.283407,27.26055 37.88056,45.03655 67.384001,45.03653 H 466.81352 c 24.39063,3e-5 46.83393,-13.31986 58.51788,-34.72966 3.13535,-5.74524 5.89621,-11.68671 8.26513,-17.78806 3.58481,9.07882 8.04921,17.785 13.3289,25.99479 9.84967,15.31599 26.81014,24.57407 45.01999,24.5737 h 79.82459 c 18.2097,3.6e-4 35.17032,-9.25772 45.01999,-24.5737 3.78034,-5.87834 7.1445,-12.01385 10.0676,-18.36218 2.9231,6.34833 6.28726,12.48384 10.0676,18.36218 9.84967,15.31599 26.81017,24.57407 45.01999,24.5737 h 79.8251 c 18.20973,3.7e-4 35.17033,-9.25771 45.02,-24.5737 1.06493,-1.65593 2.09704,-3.33252 3.09645,-5.02915 l 5.1e-4,31.55208 h 84.00004 v -48.32418 l 17.99941,25.70541 18,-25.70541 v 48.32418 h 83.9995 V 66.305152 c -10e-5,-1.40026 0,-2.800732 -0.011,-4.199227 -0.015,-1.398492 -0.049,-2.794911 -0.1193,-4.186825 -0.1415,-2.783827 -0.4287,-5.550346 -0.9509,-8.289416 -0.2612,-1.369533 -0.5802,-2.732318 -0.9581,-4.088123 -0.3779,-1.355804 -0.8166,-2.710936 -1.3033,-4.032828 -0.9734,-2.643788 -2.1417,-5.175698 -3.4767,-7.611939 -1.3351,-2.436243 -2.8378,-4.77648 -4.4938,-7.028512 -0.828,-1.126017 -1.695,-2.22923 -2.6066,-3.307291 -0.4558,-0.53903 -0.9226,-1.071519 -1.3973,-1.592668 -0.4747,-0.521147 -0.9583,-1.032303 -1.4506,-1.532723 -1.9694,-2.001684 -4.0831,-3.834414 -6.3691,-5.464266 -0.5714,-0.407464 -1.1534,-0.802078 -1.7472,-1.18339 -0.5938,-0.381312 -1.2012,-0.750098 -1.8154,-1.101742 -1.2286,-0.703287 -2.4834,-1.337319 -3.7661,-1.900659 -1.2827,-0.563338 -2.5932,-1.055562 -3.9321,-1.473812 -0.6694,-0.209125 -1.346,-0.399848 -2.0299,-0.571541 -0.6839,-0.1716909 -1.3766,-0.3249966 -2.0732,-0.4588866 -2.7864,-0.535548 -5.5831,-0.7546867 -8.3897,-0.6914307 -1.4033,0.03163 -2.8092,0.1347136 -4.2173,0.3100586 -1.4081,0.175342 -2.7965,0.4200236 -4.1651,0.7312216 -2.7374,0.6223951 -5.3981,1.5070531 -7.9778,2.6685711 -0.645,0.29038 -1.2858,0.599047 -1.9141,0.921907 -0.6284,0.322858 -1.2457,0.660851 -1.8526,1.013892 -1.2137,0.706086 -2.3837,1.473365 -3.513,2.298051 -1.1292,0.824685 -2.2175,1.707012 -3.268,2.642216 -0.5253,0.467601 -1.041,0.948112 -1.5477,1.441772 -0.5067,0.493659 -1.0035,0.99937 -1.4878,1.512569 -1.9371,2.052799 -3.6908,4.245494 -5.3371,6.520533 -0.8232,1.13752 -1.6195,2.295601 -2.4025,3.463871 -0.7829,1.168268 -1.5519,2.347562 -2.3295,3.519682 l -15.0967,22.745381 -15.09726,-22.745381 c -0.64289,-0.967785 -1.27926,-1.94073 -1.92236,-2.907833 -0.64312,-0.967099 -1.29278,-1.928485 -1.9575,-2.877344 -1.3294,-1.897721 -2.71928,-3.744506 -4.21163,-5.504573 -1.49233,-1.760066 -3.08669,-3.434176 -4.81728,-4.992977 -0.86529,-0.779401 -1.76478,-1.529838 -2.70268,-2.247925 -0.93787,-0.718084 -1.90161,-1.393884 -2.88768,-2.022616 -1.97218,-1.257467 -4.03907,-2.331644 -6.19548,-3.233394 -1.0782,-0.450874 -2.17918,-0.85761 -3.30316,-1.220081 -1.12398,-0.362471 -2.2578,-0.676187 -3.39721,-0.9420609 -2.27877,-0.531749 -4.58461,-0.8741346 -6.91844,-1.0226766 -1.16692,-0.07427 -2.34101,-0.099557 -3.52227,-0.073897 z M 606.80239,88.317245 h 50.11116 c 0.21839,-1.6e-5 0.41187,0.142409 0.47697,0.3514 0.26686,0.857133 0.40217,1.74964 0.40204,2.647383 v 48.192412 c 1.3e-4,0.89772 -0.13518,1.79025 -0.40204,2.64738 -0.0651,0.20899 -0.25858,0.35141 -0.47697,0.3514 h -50.11116 c -0.2184,1e-5 -0.41187,-0.14241 -0.47697,-0.3514 -0.26686,-0.85713 -0.40285,-1.74966 -0.40256,-2.64738 V 91.316028 c -2.9e-4,-0.897743 0.1357,-1.79025 0.40256,-2.647383 0.0651,-0.208991 0.25857,-0.351416 0.47697,-0.3514 z m 189.99978,0 h 50.11115 c 0.21839,-2.5e-5 0.41187,0.142402 0.47697,0.3514 0.26686,0.857133 0.40273,1.74964 0.40256,2.647383 v 48.192412 c 1.7e-4,0.89772 -0.1357,1.79025 -0.40256,2.64738 -0.0651,0.209 -0.25858,0.35142 -0.47697,0.3514 h -50.11115 c -0.2184,2e-5 -0.41188,-0.1424 -0.47698,-0.3514 -0.26685,-0.85713 -0.4023,-1.74966 -0.40204,-2.64738 V 91.316028 c -2.6e-4,-0.897742 0.13519,-1.790249 0.40204,-2.647383 0.0651,-0.209002 0.25858,-0.351429 0.47698,-0.3514 z M 232.7043,88.912041 203.88745,113.09248 V 88.912557 Z m 202.68168,0 23.41873,5.16e-4 c 0.18586,6.6e-5 0.35637,0.102562 0.44287,0.266651 0.69058,1.309779 1.0514,2.768207 1.05161,4.248836 v 43.968376 c -2.1e-4,1.48074 -0.36103,2.93957 -1.05161,4.24935 -0.0865,0.16409 -0.25701,0.26671 -0.44287,0.26666 h -23.41873 z m -314.49811,0.001 V 141.9124 l -23.401152,-0.001 c -0.25173,4e-5 -0.463877,-0.18739 -0.495577,-0.43718 -0.09281,-0.73138 -0.127843,-1.46872 -0.104903,-2.20555 V 91.556324 c -0.02294,-0.736844 0.01209,-1.474183 0.104903,-2.20555 0.0317,-0.249803 0.244233,-0.437242 0.496094,-0.437183 z m 230.9983,16.827919 v 36.17144 h -43.10848 z"
     style="display:inline;fill:#1a1a1a;fill-opacity:1;stroke:none;stroke-width:0.944827;stroke-linecap:round"
     id="path6"
     inkscape:label="GZDOOM_Outline" /><path
     d="m 956.60016,16.088062 c -2.34797,-0.054 -4.685,0.140544 -7.00939,0.620117 -0.5811,0.119894 -1.16208,0.258366 -1.73374,0.413412 -0.57163,0.155046 -1.13592,0.326987 -1.69292,0.51573 -1.11405,0.377484 -2.19942,0.821159 -3.2582,1.326018 -1.05876,0.50486 -2.09064,1.071049 -3.09749,1.695503 -0.50345,0.312227 -1.00137,0.63999 -1.48776,0.977718 -0.48638,0.337727 -0.96283,0.686442 -1.42937,1.045415 -1.86614,1.435886 -3.58042,3.033907 -5.17539,4.759916 -0.79745,0.863007 -1.56478,1.758511 -2.30477,2.68304 -0.73996,0.924525 -1.44674,1.87052 -2.12132,2.832902 -1.34911,1.924762 -2.57011,3.919858 -3.64887,5.99395 -1.07876,2.074095 -2.01557,4.226878 -2.78381,6.472473 -0.19206,0.561399 -0.37273,1.127222 -0.54106,1.693436 -0.16833,0.566216 -0.32428,1.13415 -0.46818,1.703772 -0.28782,1.139243 -0.52543,2.285188 -0.71572,3.438033 -0.38055,2.305688 -0.57555,4.637563 -0.66715,6.983554 -0.0916,2.345992 -0.0789,4.705749 -0.0791,7.062101 V 83.322201 C 914.71622,67.595949 908.37575,52.615455 899.64085,39.032915 891.35532,26.149119 877.08829,18.361841 861.77029,18.361825 h -79.8251 c -15.31808,1.6e-5 -29.58502,7.787294 -37.87055,20.67109 -7.61837,11.846361 -13.42181,24.766333 -17.21704,38.32996 -3.79523,-13.563626 -9.59816,-26.483598 -17.21652,-38.32996 -8.28553,-12.883793 -22.55311,-20.67107 -37.87107,-20.67109 h -79.82459 c -15.31812,9e-6 -29.58554,7.787288 -37.87107,20.67109 C 543.6639,55.220891 536.67263,73.366546 533.52986,92.354725 530.92525,76.365906 525.63056,60.933999 517.87036,46.7141 507.67616,28.034138 488.09428,16.412548 466.81352,16.41259 H 91.386316 c -26.064708,-3.8e-5 -49.56193,15.704522 -59.530217,39.787752 -15.693413,37.915051 -15.693413,80.509248 0,118.424298 9.968282,24.08324 33.465505,39.78779 59.530217,39.78724 H 466.81352 c 21.28076,5.6e-4 40.86264,-11.62103 51.05684,-30.301 7.7602,-14.2199 13.05489,-29.6518 15.6595,-45.64062 3.14277,18.98818 10.13404,37.13332 20.54449,53.32129 8.28553,12.8838 22.55295,20.6717 37.87107,20.67212 h 79.82459 c 15.31796,-4.3e-4 29.58554,-7.78833 37.87107,-20.67212 7.61836,-11.84636 13.42129,-24.76582 17.21652,-38.32944 3.79523,13.56362 9.59867,26.48308 17.21704,38.32944 8.28553,12.8838 22.55247,20.6717 37.87055,20.67212 h 79.8251 c 15.318,-4.2e-4 29.58503,-7.78832 37.87056,-20.67212 8.7349,-13.58254 15.07537,-28.56253 18.74511,-44.28877 v 66.90858 H 985.386 v -66.78249 l 26.5007,37.84627 26.4981,-37.84627 v 66.78249 h 67.0006 V 66.305152 c 4e-4,-2.345327 0.013,-4.691929 -0.078,-7.027478 -0.09,-2.335548 -0.2819,-4.659926 -0.6594,-6.964433 -0.1887,-1.152253 -0.4247,-2.299489 -0.7116,-3.441134 -0.1434,-0.570823 -0.2995,-1.140276 -0.4677,-1.708423 -0.1682,-0.568145 -0.3488,-1.135829 -0.54,-1.696537 -0.7648,-2.242825 -1.6989,-4.396767 -2.7771,-6.47454 -1.0783,-2.077773 -2.301,-4.079136 -3.6545,-6.012036 -0.6767,-0.966449 -1.3876,-1.91908 -2.1255,-2.841687 -0.7379,-0.922605 -1.504,-1.81702 -2.3006,-2.67994 -1.5932,-1.725837 -3.3081,-3.327403 -5.1806,-4.769218 -0.9362,-0.720911 -1.9174,-1.404308 -2.9223,-2.027783 -1.0049,-0.623477 -2.0367,-1.189939 -3.0975,-1.696021 -1.0608,-0.506084 -2.1505,-0.951676 -3.2716,-1.331184 -0.5606,-0.189751 -1.1308,-0.363339 -1.7058,-0.518832 -0.575,-0.155491 -1.1515,-0.292311 -1.7302,-0.411344 -2.3148,-0.476133 -4.658,-0.672993 -7.0269,-0.615983 -0.5922,0.01426 -1.1879,0.04514 -1.7803,0.09147 -0.5924,0.04634 -1.1811,0.108328 -1.7668,0.185518 -1.1713,0.154379 -2.3296,0.369127 -3.4747,0.643372 -1.1451,0.274244 -2.277,0.607664 -3.3957,1.002523 -0.5593,0.19743 -1.1168,0.411268 -1.665,0.638204 -0.5481,0.226933 -1.0879,0.467075 -1.6195,0.721403 -1.0631,0.508656 -2.0932,1.072264 -3.0892,1.691886 -0.996,0.619623 -1.9578,1.295414 -2.8877,2.024166 -0.93,0.728753 -1.8313,1.514421 -2.6862,2.33009 -0.855,0.815665 -1.6677,1.664488 -2.4468,2.540414 -1.5582,1.751849 -2.9803,3.612075 -4.3316,5.528344 -0.6757,0.958133 -1.3342,1.930355 -1.9849,2.90835 -0.6507,0.977998 -1.2934,1.961609 -1.9435,2.940389 l -22.178,33.415015 -22.18003,-33.415015 c -0.65242,-0.982842 -1.29786,-1.970743 -1.9513,-2.952791 -0.65346,-0.982046 -1.31479,-1.95801 -1.99419,-2.920752 -1.35876,-1.925484 -2.79034,-3.796748 -4.36511,-5.561418 -0.78737,-0.882335 -1.61286,-1.73999 -2.46807,-2.551782 -0.85519,-0.811789 -1.74291,-1.580926 -2.66702,-2.302185 -0.92411,-0.721257 -1.88453,-1.39422 -2.88561,-2.014348 -0.50053,-0.310065 -1.01094,-0.60688 -1.53169,-0.890384 -0.52075,-0.283504 -1.05267,-0.55412 -1.5875,-0.80822 -2.13942,-1.016408 -4.35457,-1.789153 -6.64094,-2.333708 -1.14318,-0.272277 -2.30497,-0.487179 -3.48454,-0.640788 -1.17959,-0.153609 -2.35656,-0.243269 -3.53054,-0.270267 z M 602.2218,79.817505 h 59.27183 c 0.2967,-2.1e-5 0.57843,0.132045 0.76843,0.360185 2.6045,3.127476 4.03037,7.068352 4.03076,11.138338 v 48.192412 c -3.9e-4,4.06997 -1.42626,8.01138 -4.03076,11.13885 -0.19,0.22814 -0.47173,0.36019 -0.76843,0.36019 H 602.2218 c -0.29685,0 -0.57844,-0.13205 -0.76843,-0.36019 -2.60452,-3.12747 -4.03052,-7.06888 -4.03076,-11.13885 V 91.316028 c 2.4e-4,-4.06999 1.42624,-8.010866 4.03076,-11.138338 0.18999,-0.22814 0.47158,-0.360206 0.76843,-0.360185 z m 190.00028,0 h 59.27132 c 0.29672,-2.1e-5 0.57844,0.132045 0.76843,0.360185 2.60451,3.127475 4.03091,7.068351 4.03128,11.138338 v 48.192412 c -3.7e-4,4.06997 -1.42677,8.01138 -4.03128,11.13885 -0.18999,0.22814 -0.47171,0.36019 -0.76843,0.36019 h -59.27132 c -0.29681,0 -0.57843,-0.13205 -0.76842,-0.36019 -2.60451,-3.12747 -4.03101,-7.06888 -4.03128,-11.13885 V 91.316028 c 2.7e-4,-4.069987 1.42677,-8.010863 4.03128,-11.138338 0.18999,-0.22814 0.47161,-0.360206 0.76842,-0.360185 z M 91.386316,80.412301 H 256.05791 l -60.6702,50.908519 V 94.41248 h -66.0001 v 55.99968 H 91.386316 c -0.173085,6e-5 -0.329133,-0.10414 -0.395325,-0.26406 -0.414228,-1.00077 -0.810906,-2.00865 -1.189075,-3.02359 -0.936462,-2.51331 -1.415885,-5.17379 -1.415934,-7.85585 V 91.556324 c 5e-5,-2.682074 0.479473,-5.342543 1.415934,-7.855852 0.378169,-1.01494 0.774847,-2.023339 1.189075,-3.024104 0.06619,-0.159923 0.22224,-0.264001 0.395325,-0.264067 z m 272.660354,0 h 98.61 c 0.25727,6.5e-5 0.50438,0.09893 0.6904,0.276469 3.48162,3.322975 5.45185,7.926445 5.45134,12.739274 v 43.968376 c 5.1e-4,4.81295 -1.96972,9.4163 -5.45134,12.73928 -0.18602,0.17754 -0.43313,0.27652 -0.6904,0.27646 H 426.88521 V 83.700472 h -62.83854 z m -3.66179,7.100342 v 62.899517 h -74.95925 z"
     style="display:inline;fill:#0d1e35;fill-opacity:1;stroke:none;stroke-width:0.945;stroke-linecap:round;stroke-dasharray:none"
     id="path5"
     inkscape:label="GZDOOM_Outline"
     sodipodi:nodetypes="cssssssssssssssssccsssscsssscsccssccscsccscsccsccccccccccssssssssssssssssssssssssssscccssssssssssccccsccssssccscccsccssssccsccccccccssccsscccsccsccccccccc" /><g
     id="g51"
     inkscape:label="DOOM_Shadow"
     style="fill:#00031d;fill-opacity:1;stroke:#021126;stroke-opacity:1"
     transform="translate(14.817863,9.752531)"><path
       id="path48"
       style="display:inline;fill:#00031d;fill-opacity:1;stroke:#021126;stroke-width:0.944827;stroke-linecap:round;stroke-opacity:1"
       d="M 467.18527,130.28998 V 86.321258 c 0,-7.916005 -3.45995,-15.436623 -9.47134,-20.587075 -1.45251,-1.244483 -3.30218,-1.928501 -5.2153,-1.928495 l -93.72638,5e-6 v -45.00007 l 96.92764,3e-5 c 17.80501,3.2e-5 34.18846,9.723449 42.71764,25.352414 21.81931,39.981952 21.81931,88.313283 0,128.295233 -8.52918,15.62897 -24.91263,25.35239 -42.71764,25.35256 l -96.92764,1.7e-4 V 84.456683 H 406.2729 V 152.8057 l 46.22573,-1e-5 c 1.91312,-1e-5 3.76279,-0.68403 5.2153,-1.92851 6.0114,-5.15045 9.47134,-12.67108 9.47134,-20.5872 z"
       inkscape:label="D"
       sodipodi:nodetypes="ccccccccccccccccc" /><path
       d="m 580.83173,20.754806 c -12.08618,-5.1e-5 -23.34349,6.144654 -29.88086,16.310115 -27.90679,43.394368 -27.90679,99.086859 0,142.481229 6.53737,10.16546 17.79467,16.31028 29.88086,16.31011 h 79.82459 c 12.08604,1.7e-4 23.34348,-6.14465 29.88086,-16.31011 27.90679,-43.39437 27.90679,-99.086861 0,-142.481229 C 683.9998,26.89946 672.74235,20.754755 660.65632,20.754806 Z m 8.90333,42.455806 h 62.01792 c 2.00142,4.2e-5 3.91776,0.810124 5.31286,2.245341 4.88175,5.022169 7.61278,11.749516 7.61245,18.753377 v 48.19241 c 3.3e-4,7.00384 -2.7307,13.73172 -7.61245,18.75389 -1.3951,1.43522 -3.31144,2.24477 -5.31286,2.24483 h -62.01792 c -2.00156,-6e-5 -3.91828,-0.80961 -5.31337,-2.24483 -4.88176,-5.02216 -7.61242,-11.75004 -7.61194,-18.75389 V 84.20933 c -4.8e-4,-7.003865 2.73018,-13.731213 7.61194,-18.753377 1.39509,-1.435215 3.31181,-2.245296 5.31337,-2.245341 z"
       style="display:inline;fill:#00031d;fill-opacity:1;stroke:#021126;stroke-width:0.944827;stroke-linecap:round;stroke-opacity:1"
       id="path49"
       inkscape:label="O" /><path
       d="m 770.8315,20.754806 c -12.08616,-5.4e-5 -23.34296,6.144651 -29.88034,16.310115 -27.90679,43.394368 -27.90679,99.086859 0,142.481229 6.53738,10.16547 17.79418,16.31029 29.88034,16.31011 h 79.8251 c 12.08607,1.8e-4 23.34297,-6.14464 29.88035,-16.31011 27.90679,-43.39437 27.90679,-99.086861 0,-142.481229 C 873.99957,26.899457 862.74267,20.754752 850.6566,20.754806 Z m 8.90333,42.455806 h 62.01844 c 2.00144,4.2e-5 3.91777,0.810124 5.31286,2.245341 4.88176,5.022166 7.61282,11.749513 7.61245,18.753377 v 48.19241 c 3.7e-4,7.00384 -2.73069,13.73172 -7.61245,18.75389 -1.39509,1.43522 -3.31142,2.24477 -5.31286,2.24483 h -62.01844 c -2.00153,-6e-5 -3.91776,-0.80961 -5.31285,-2.24483 -4.88175,-5.02217 -7.61291,-11.75005 -7.61245,-18.75389 V 84.20933 c -4.6e-4,-7.00386 2.7307,-13.731206 7.61245,-18.753377 1.39509,-1.435217 3.31132,-2.245299 5.31285,-2.245341 z"
       style="display:inline;fill:#00031d;fill-opacity:1;stroke:#021126;stroke-width:0.944827;stroke-linecap:round;stroke-opacity:1"
       id="path50"
       inkscape:label="O" /><path
       id="path51"
       style="display:inline;fill:#00031d;fill-opacity:1;stroke:#021126;stroke-width:0.944827;stroke-linecap:round;stroke-opacity:1"
       d="m 916.7732,197.80603 h 47.99806 v -87.41357 l 36.00184,51.41331 35.9992,-51.41331 v 87.41357 h 48.0007 l -3e-4,-138.607559 c -3e-4,-4.639742 0.061,-9.230498 -0.8294,-13.645788 -1.0602,-5.257784 -3.47,-10.266751 -6.755,-14.811854 -3.7514,-5.190249 -8.6441,-9.775605 -14.6176,-11.485859 -5.9367,-1.699728 -12.941,-0.55963 -18.2719,2.737483 -5.9156,3.65874 -9.7708,9.973606 -13.432,15.489525 l -30.0937,45.339315 -30.09576,-45.339314 c -3.66061,-5.51592 -7.5158,-11.830786 -13.43143,-15.489526 -5.33096,-3.297113 -12.33522,-4.437211 -18.27194,-2.737483 -5.97347,1.710254 -10.8662,6.29561 -14.61754,11.485859 -3.28504,4.545103 -5.69482,9.55407 -6.75508,14.811854 -0.89035,4.41529 -0.82899,9.006046 -0.82857,13.645788 z"
       inkscape:label="M"
       sodipodi:nodetypes="cccccccccssscccsssscc" /></g><path
     d="m 91.386316,25.912268 c -22.22142,3.1e-5 -42.254013,13.388814 -50.752458,33.920927 -14.730479,35.588614 -14.730479,75.569465 0,111.158075 8.498442,20.53212 28.531036,33.92127 50.752458,33.92144 H 354.8865 V 159.91236 H 259.32386 L 354.8865,79.726038 v -53.81377 z m 0,45.000354 H 282.15813 L 185.88752,151.69322 V 103.91216 H 138.8878 v 56.0002 H 91.386316 c -4.016373,-1e-5 -7.637566,-2.41985 -9.173601,-6.13089 -0.457553,-1.10545 -0.894858,-2.21926 -1.312581,-3.34037 -1.331855,-3.57448 -2.013845,-7.35794 -2.013831,-11.17244 V 91.556324 c -1.3e-5,-3.814514 0.681977,-7.598482 2.013831,-11.172962 0.417723,-1.121103 0.855028,-2.234402 1.312581,-3.339848 1.536035,-3.711038 5.157228,-6.130897 9.173601,-6.130892 z"
     style="display:inline;opacity:0.98;mix-blend-mode:normal;fill:#cbcbcb;fill-opacity:1;stroke:none;stroke-width:0.944827;stroke-linecap:round"
     id="path7"
     inkscape:label="GZ1" /><path
     d="m 91.386316,25.912268 c -22.22142,3.1e-5 -42.254013,13.388814 -50.752458,33.920927 -14.730479,35.588614 -14.730479,75.569465 0,111.158075 8.498442,20.53212 28.531036,33.92127 50.752458,33.92144 H 354.8865 V 159.91236 H 259.32386 L 354.8865,79.726038 v -53.81377 z m 0,45.000354 H 282.15813 L 185.88752,151.69322 V 103.91216 H 138.8878 v 56.0002 H 91.386316 c -4.016373,-1e-5 -7.637566,-2.41985 -9.173601,-6.13089 -0.457553,-1.10545 -0.894858,-2.21926 -1.312581,-3.34037 -1.331855,-3.57448 -2.013845,-7.35794 -2.013831,-11.17244 V 91.556324 c -1.3e-5,-3.814514 0.681977,-7.598482 2.013831,-11.172962 0.417723,-1.121103 0.855028,-2.234402 1.312581,-3.339848 1.536035,-3.711038 5.157228,-6.130897 9.173601,-6.130892 z"
     style="display:inline;opacity:0.98;mix-blend-mode:normal;fill:url(#radialGradient1663);stroke:none;stroke-width:0.944827;stroke-linecap:round"
     id="path1662"
     inkscape:label="GZ2" /><g
     id="g9"
     inkscape:label="DOOM"
     style="fill:url(#linearGradient10);stroke:#021126;stroke-opacity:1"
     transform="translate(11.113696,7.1066981)"><path
       id="path42"
       style="display:inline;fill:url(#linearGradient1663);fill-opacity:1;stroke:#021126;stroke-width:0.944827;stroke-linecap:round;stroke-opacity:1"
       d="M 467.18527,130.28998 V 86.321258 c 0,-7.916005 -3.45995,-15.436623 -9.47134,-20.587075 -1.45251,-1.244483 -3.30218,-1.928501 -5.2153,-1.928495 l -93.72638,5e-6 v -45.00007 l 96.92764,3e-5 c 17.80501,3.2e-5 34.18846,9.723449 42.71764,25.352414 21.81931,39.981952 21.81931,88.313283 0,128.295233 -8.52918,15.62897 -24.91263,25.35239 -42.71764,25.35256 l -96.92764,1.7e-4 V 84.456683 H 406.2729 V 152.8057 l 46.22573,-1e-5 c 1.91312,-1e-5 3.76279,-0.68403 5.2153,-1.92851 6.0114,-5.15045 9.47134,-12.67108 9.47134,-20.5872 z"
       inkscape:label="D"
       sodipodi:nodetypes="ccccccccccccccccc" /><path
       d="m 580.83173,20.754806 c -12.08618,-5.1e-5 -23.34349,6.144654 -29.88086,16.310115 -27.90679,43.394368 -27.90679,99.086859 0,142.481229 6.53737,10.16546 17.79467,16.31028 29.88086,16.31011 h 79.82459 c 12.08604,1.7e-4 23.34348,-6.14465 29.88086,-16.31011 27.90679,-43.39437 27.90679,-99.086861 0,-142.481229 C 683.9998,26.89946 672.74235,20.754755 660.65632,20.754806 Z m 8.90333,42.455806 h 62.01792 c 2.00142,4.2e-5 3.91776,0.810124 5.31286,2.245341 4.88175,5.022169 7.61278,11.749516 7.61245,18.753377 v 48.19241 c 3.3e-4,7.00384 -2.7307,13.73172 -7.61245,18.75389 -1.3951,1.43522 -3.31144,2.24477 -5.31286,2.24483 h -62.01792 c -2.00156,-6e-5 -3.91828,-0.80961 -5.31337,-2.24483 -4.88176,-5.02216 -7.61242,-11.75004 -7.61194,-18.75389 V 84.20933 c -4.8e-4,-7.003865 2.73018,-13.731213 7.61194,-18.753377 1.39509,-1.435215 3.31181,-2.245296 5.31337,-2.245341 z"
       style="display:inline;fill:url(#linearGradient1664);fill-opacity:1;stroke:#021126;stroke-width:0.944827;stroke-linecap:round;stroke-opacity:1"
       id="path8"
       inkscape:label="O" /><path
       d="m 770.8315,20.754806 c -12.08616,-5.4e-5 -23.34296,6.144651 -29.88034,16.310115 -27.90679,43.394368 -27.90679,99.086859 0,142.481229 6.53738,10.16547 17.79418,16.31029 29.88034,16.31011 h 79.8251 c 12.08607,1.8e-4 23.34297,-6.14464 29.88035,-16.31011 27.90679,-43.39437 27.90679,-99.086861 0,-142.481229 C 873.99957,26.899457 862.74267,20.754752 850.6566,20.754806 Z m 8.90333,42.455806 h 62.01844 c 2.00144,4.2e-5 3.91777,0.810124 5.31286,2.245341 4.88176,5.022166 7.61282,11.749513 7.61245,18.753377 v 48.19241 c 3.7e-4,7.00384 -2.73069,13.73172 -7.61245,18.75389 -1.39509,1.43522 -3.31142,2.24477 -5.31286,2.24483 h -62.01844 c -2.00153,-6e-5 -3.91776,-0.80961 -5.31285,-2.24483 -4.88175,-5.02217 -7.61291,-11.75005 -7.61245,-18.75389 V 84.20933 c -4.6e-4,-7.00386 2.7307,-13.731206 7.61245,-18.753377 1.39509,-1.435217 3.31132,-2.245299 5.31285,-2.245341 z"
       style="display:inline;fill:url(#linearGradient1665);fill-opacity:1;stroke:#021126;stroke-width:0.944827;stroke-linecap:round;stroke-opacity:1"
       id="path9"
       inkscape:label="O" /><path
       id="path94"
       style="display:inline;fill:url(#linearGradient1666);fill-opacity:1;stroke:#021126;stroke-width:0.944827;stroke-linecap:round;stroke-opacity:1"
       d="m 916.7732,197.80603 h 47.99806 v -87.41357 l 36.00184,51.41331 35.9992,-51.41331 v 87.41357 h 48.0007 l -3e-4,-138.607559 c -3e-4,-4.639742 0.061,-9.230498 -0.8294,-13.645788 -1.0602,-5.257784 -3.47,-10.266751 -6.755,-14.811854 -3.7514,-5.190249 -8.6441,-9.775605 -14.6176,-11.485859 -5.9367,-1.699728 -12.941,-0.55963 -18.2719,2.737483 -5.9156,3.65874 -9.7708,9.973606 -13.432,15.489525 l -30.0937,45.339315 -30.09576,-45.339314 c -3.66061,-5.51592 -7.5158,-11.830786 -13.43143,-15.489526 -5.33096,-3.297113 -12.33522,-4.437211 -18.27194,-2.737483 -5.97347,1.710254 -10.8662,6.29561 -14.61754,11.485859 -3.28504,4.545103 -5.69482,9.55407 -6.75508,14.811854 -0.89035,4.41529 -0.82899,9.006046 -0.82857,13.645788 z"
       inkscape:label="M"
       sodipodi:nodetypes="cccccccccssscccsssscc" /></g><path
     id="path16"
     style="opacity:0.7;fill:#002053;fill-opacity:1;stroke:none;stroke-width:3.571;stroke-linecap:round;filter:url(#filter51)"
     d="m 3673.48,757.795 11.91,17.008 h 195.84 l 11.9,-17.008 z m 160.11,85.04 11.91,-17.008 h -124.38 l 11.9,17.008 z M 3465.83,961.89 v 17.008 h 181.41 V 961.89 Z m 453.54,0 v 17.008 h 181.42 V 961.89 Z m 181.42,-51.024 v -17.008 h -181.42 v 17.008 z m -453.55,0 v -17.008 h -181.41 v 17.008 z m -181.41,-85.039 v 17.008 h 181.41 v -17.008 z m 634.96,0 v 17.008 h -181.42 v -17.008 z m -181.42,-51.024 h 181.42 v -17.008 h -181.42 z m -272.13,0 v -17.008 h -181.41 v 17.008 z m -181.41,-85.039 v 17.008 h 634.96 v -17.008 z m 0,-68.032 v 17.008 h 634.96 v -17.008 z m 634.96,-51.023 v -17.008 h -276.05 l -11.29,17.008 z m -634.96,0 h 287.33 l -11.29,-17.008 h -276.04 z m 634.7287,-68.03192 -241.9487,-8e-5 11.29,-17.008 229.4104,1.5e-4 c 0.6777,5.61325 1.0469,11.28834 1.2483,17.00793 z M 3696.72,485.669 l -229.4183,1.5e-4 c -0.6756,5.61325 -1.0448,11.28834 -1.2433,17.00793 l 241.9516,-8e-5 z m 375.4031,-66.38656 c 3.5996,4.98032 6.9212,10.108 9.919,15.3634 h -178.3119 c 3.771,-5.68398 7.6717,-11.43395 11.8314,-17.00794 h 155.3585 c 0.4045,0.54618 0.8055,1.09446 1.203,1.64454 z m -409.2393,15.36323 c -3.7709,-5.68381 -7.6715,-11.43378 -11.8328,-17.00788 m 11.829,17.00821 -178.3099,-1.6e-4 c 2.9998,-5.2554 6.3213,-10.38308 9.9209,-15.3634 0.3976,-0.55008 0.7986,-1.09836 1.201,-1.64454 l 155.358,10e-5 m -861.8397,544.25188 c 3.3225,5.73725 6.7591,11.40767 10.3088,17.00794 h 531.1415 c 3.5493,-5.60027 6.9859,-11.27069 10.3088,-17.00794 z m -32.7779,-68.03175 c 2.238,5.71221 4.5788,11.38246 7.0258,17.00794 h 603.2633 c 2.4466,-5.62548 4.7874,-11.29573 7.0207,-17.00794 z m 472.2321,-68.03124 c -1.3084,5.81746 -3.126,11.50868 -5.4331,17.00794 h 167.3701 c 1.5333,-5.6438 2.9655,-11.31397 4.2953,-17.00794 z m -321.7162,17.00794 c -2.3075,-5.49926 -4.1251,-11.19048 -5.4359,-17.00794 h -166.23 c 1.3344,5.69397 2.7666,11.36414 4.298,17.00794 z m 497.1108,-68.03175 c 0.7135,-5.6582 1.3307,-11.32832 1.8506,-17.00794 L 3231.14,757.795 v 17.008 z m -505.0191,-8e-5 v -17.008 l -174.7701,1.4e-4 c 0.5196,5.67962 1.1368,11.34974 1.8507,17.00794 z m 508.4216,-85.03911 -176.3216,1.1e-4 v 17.008 l 176.8088,-1.7e-4 c -0.066,-5.67182 -0.2273,-11.34193 -0.4872,-17.00794 z m -684.7434,0 176.3218,1.1e-4 v 17.008 l -176.8091,-1.7e-4 c 0.065,-5.67182 0.227,-11.34193 0.4873,-17.00794 z m 679.7736,-51.02381 c -0.8492,-5.68523 -1.7988,-11.35538 -2.844,-17.00794 L 3231.14,621.732 V 638.74 Z M 2899.04,638.74 v -17.008 l -168.5081,1.4e-4 c -1.0456,5.65256 -1.9952,11.32271 -2.8441,17.00794 z m 488.3382,-68.03117 h -169.7503 c -3.4936,-6.07695 -7.6038,-11.77654 -12.2676,-17.00793 h 176.6304 c 1.8971,5.63656 3.6924,11.30676 5.3875,17.00793 z m -474.8264,0 h -169.7503 c 1.6948,-5.70117 3.49,-11.37137 5.3875,-17.00793 h 176.6304 c -4.6642,5.23139 -8.7744,10.93098 -12.2676,17.00793 z m -135.7002,-85.03968 c -2.8724,5.61633 -5.6394,11.28664 -8.2998,17.00793 h 593.0761 c -2.6607,-5.72129 -5.4277,-11.3916 -8.2998,-17.00793 z m 45.7879,-68.03125 c -5.5964,5.22103 -10.7356,10.91104 -15.3607,17.00794 h 515.6221 c -4.6255,-6.0969 -9.7647,-11.78691 -15.3607,-17.00794 z m -217.8487,17.00794 h -515.6221 c 4.625,-6.0969 9.7642,-11.78691 15.3607,-17.00794 H 2589.43 c 5.5959,5.22103 10.7351,10.91104 15.3608,17.00794 z m 38.7269,68.03124 h -593.076 c 2.6602,-5.72129 5.4272,-11.3916 8.2998,-17.00793 h 576.4764 c 2.872,5.61633 5.639,11.28664 8.2998,17.00793 z m -156.2675,51.02382 h 176.6303 c 1.897,5.63656 3.6923,11.30676 5.3876,17.00793 h -169.7504 c -3.4936,-6.07695 -7.6038,-11.77653 -12.2675,-17.00793 z m -457.1713,0 h 176.6303 c -4.6642,5.23139 -8.7744,10.93098 -12.2675,17.00793 h -169.7503 c 1.6946,-5.70117 3.4899,-11.37137 5.3875,-17.00793 z m -20.5012,85.03918 c 0.8487,-5.68523 1.7983,-11.35538 2.8441,-17.00794 L 2180.93,621.732 v 17.008 z m 671.96,-17.00794 -168.5077,-1.4e-4 v 17.008 l 171.3517,8e-5 c -0.8493,-5.68523 -1.7989,-11.35538 -2.844,-17.00794 z M 2513.03,689.764 l 176.3214,-1.1e-4 c 0.2598,5.66601 0.4209,11.33612 0.4873,17.00794 L 2513.03,706.772 Z m -332.1,17.008 v -17.008 l -176.322,-1.1e-4 c -0.2604,5.66601 -0.4219,11.33612 -0.4872,17.00794 z m 332.1,51.023 174.7696,1.4e-4 c -0.52,5.67962 -1.1372,11.34974 -1.8506,17.00794 l -172.919,-8e-5 z m -2.4758,68.03177 c -1.3084,5.81757 -3.1259,11.5088 -5.4329,17.00806 h 167.3699 c 1.5331,-5.6438 2.9653,-11.31397 4.2952,-17.00794 l -166.2322,1.1e-4 M 2006.1599,757.79514 2180.93,757.795 v 17.008 l -172.9195,8e-5 c -0.714,-5.6582 -1.3312,-11.32832 -1.8506,-17.00794 z m 11.0124,68.03175 166.23,-1e-5 c 1.3107,5.81746 3.1282,11.50869 5.4358,17.00794 l -167.3678,10e-6 c -1.5315,-5.6438 -2.9637,-11.31397 -4.298,-17.00794 z m 21.1501,68.03124 c 2.2377,5.7122 4.5786,11.38246 7.0256,17.00794 h 603.2634 c 2.4465,-5.62548 4.7873,-11.29573 7.0207,-17.00794 z m 32.7777,68.03175 c 3.3225,5.73725 6.759,11.40767 10.3088,17.00794 h 531.1415 c 3.5493,-5.60027 6.9859,-11.27069 10.3089,-17.00794 z M 1356.85,978.898 l 512.1488,-1.8e-4 c 4.1878,-5.44789 8.0682,-11.12609 11.6215,-17.00794 L 1356.85,961.89 Z m 0,-68.032 549.1222,7e-5 c 2.4004,-5.62714 4.6963,-11.29736 6.8884,-17.00793 L 1356.85,893.858 Z m 179.53,-85.039 h -179.53 v 17.008 h 179.53 z m 225.6388,-1.1e-4 h 171.6094 c -1.3094,5.69311 -2.7167,11.36325 -4.2199,17.00794 h -174.3796 c 2.8342,-5.44847 5.1741,-11.14068 6.9901,-17.00794 z M 1766.6,757.795 v 17.008 l 176.0383,8e-5 c 0.7008,-5.65856 1.3077,-11.32866 1.8202,-17.00794 z m -409.75,17.008 h 179.53 v -17.008 h -179.53 z m 0,-68.031 h 179.53 V 689.764 H 1356.85 Z M 1945.9825,689.76389 1766.6,689.764 v 17.008 l 179.8608,-1.7e-4 c -0.063,-5.67174 -0.2217,-11.34183 -0.4783,-17.00794 z m -4.8833,-51.02381 c -0.8377,-5.6847 -1.7712,-11.35481 -2.8001,-17.00794 h -171.9809 c 0.1868,2.53513 0.2818,5.07627 0.2818,7.61808 V 638.74 Z M 1536.38,622.303 h -179.53 v 16.437 h 179.53 z m 196.8621,-68.60211 c 5.5863,5.10129 10.5887,10.80534 14.9177,17.00794 h 178.0816 c -1.6614,-5.70004 -3.4243,-11.37021 -5.2889,-17.00793 z M 1356.85,485.669 v 17.008 m 0,0 544.1286,8e-5 c -2.606,-5.7192 -5.317,-11.38948 -8.1307,-17.00793 L 1356.85,485.669 m 485.0816,-68.0311 -485.0816,10e-5 v 17.008 l 502.6803,-1.6e-4 c -5.4815,-6.05385 -11.3602,-11.73572 -17.5987,-17.00794 z"
     sodipodi:nodetypes="ccccccccccccccccccccccccccccccccccccccccccccccccccccccccccccccccccccccccccccccccsccccsccccscccccccccccccccccccccccccccccccccccccccccccccccccccccccccccccccccccccccccccccccccccccccccccccccccccccccccccccccccccccccccccccccccccccccccccccccccccccccccccccccccccccccccccccccccccccccccsccccccccccccccccccccccc"
     transform="matrix(0.26458333,0,0,0.26458333,10.886102,-73.089537)"
     inkscape:label="DOOM_Stripes" /><g
     inkscape:label="0"
     id="g325"
     transform="matrix(0.26458333,0,0,0.26458333,10.886102,-73.089538)" /><g
     inkscape:label="0"
     id="g108"
     transform="matrix(0.26458333,0,0,0.26458333,10.886102,-73.089537)" /></svg>
