<?xml version="1.0" encoding="UTF-8" standalone="no"?>
<svg
   width="566.93"
   height="300"
   viewBox="0 -26.707 566.93 300"
   xml:space="preserve"
   version="1.1"
   id="svg1"
   sodipodi:docname="wii.svg"
   inkscape:version="1.4.3 (0d15f75042, 2025-12-25)"
   xmlns:inkscape="http://www.inkscape.org/namespaces/inkscape"
   xmlns:sodipodi="http://sodipodi.sourceforge.net/DTD/sodipodi-0.dtd"
   xmlns="http://www.w3.org/2000/svg"
   xmlns:svg="http://www.w3.org/2000/svg"><defs
   id="defs1" /><sodipodi:namedview
   id="namedview1"
   pagecolor="#979797"
   bordercolor="#000000"
   borderopacity="0.25"
   inkscape:showpageshadow="2"
   inkscape:pageopacity="0.0"
   inkscape:pagecheckerboard="0"
   inkscape:deskcolor="#d1d1d1"
   inkscape:zoom="1.0335544"
   inkscape:cx="283.9715"
   inkscape:cy="150.45168"
   inkscape:window-width="1920"
   inkscape:window-height="1080"
   inkscape:window-x="0"
   inkscape:window-y="0"
   inkscape:window-maximized="0"
   inkscape:current-layer="svg1" />
    <g
   id="path1"
   style="opacity:1"
   transform="matrix(.89076 0 0 .86476 33.934 21.349)"><path
     style="baseline-shift:baseline;display:inline;overflow:visible;vector-effect:none;fill:#ffffff;stroke-linecap:round;stroke-linejoin:round;paint-order:markers stroke fill;enable-background:accumulate;stop-color:#000000;stop-opacity:1"
     d="m 384.83984,-11.394531 c -22.00023,0 -40.4707,17.5872828 -40.4707,39.470703 0,21.874612 18.47899,39.4375 40.4707,39.4375 22.28048,0 41.16407,-17.379101 41.16407,-39.4375 -0.001,-22.0599333 -18.87038,-39.470703 -41.16407,-39.470703 z m 100.92383,0 c -21.99458,0 -40.48633,17.5750266 -40.48633,39.470703 0,21.88737 18.50091,39.4375 40.48633,39.4375 22.28712,0 41.14844,-17.391649 41.14844,-39.4375 0,-22.0487314 -18.84878,-39.470703 -41.14844,-39.470703 z M 167.07031,0.33007813 c -9.81993,-1e-8 -19.43792,2.66302667 -27.12109,8.68749997 -7.68317,6.0244729 -12.9966,14.9139439 -16.18359,25.6289059 a 11.395025,11.395025 0 0 0 -0.002,0.0059 C 119.76985,48.105013 106.27931,99.611066 96.123047,138.55664 L 63.486328,10.689453 A 11.395025,11.395025 0 0 0 52.447266,2.1132813 H 0 A 11.395025,11.395025 0 0 0 -10.980469,16.544922 c 0,0 12.5953567,45.530718 26.048828,93.703128 13.451545,48.1655 27.442864,98.02166 31.310547,109.93164 4.43e-4,0.001 0.0015,0.003 0.002,0.004 3.61e-4,0.001 0.0016,0.007 0.002,0.008 6.392621,19.73801 23.320075,37.78906 47.484375,37.78906 13.461263,0 24.717603,-5.37767 32.302733,-12.87891 7.58514,-7.50123 11.8729,-16.63083 14.55469,-24.92578 a 11.395025,11.395025 0 0 0 0.004,-0.0156 c 2.74179,-8.52099 11.72584,-41.20565 20.45507,-73.06836 3.04335,-11.10855 3.30431,-12.11846 5.88672,-21.59375 2.58202,9.47518 2.84213,10.48537 5.88477,21.59375 8.72729,31.86244 17.71261,64.56149 20.4414,73.0625 a 11.395025,11.395025 0 0 0 0.008,0.0195 c 2.68083,8.29558 6.96863,17.42638 14.55273,24.92773 7.5841,7.50135 18.83942,12.87891 32.29883,12.87891 24.17967,0 41.08489,-18.06432 47.50586,-37.78125 a 11.395025,11.395025 0 0 0 0.006,-0.0156 c 3.85028,-11.88396 17.83797,-61.76531 31.28125,-109.9375 13.44328,-48.172184 26.03125,-93.703121 26.03125,-93.703121 A 11.395025,11.395025 0 0 0 334.09766,2.1132813 H 281.6543 A 11.395025,11.395025 0 0 0 270.61328,10.691406 L 238.00391,138.54297 C 227.85156,99.606021 214.37095,48.136085 210.35156,34.646484 l -0.002,-0.0039 C 207.16292,23.932984 201.85836,15.046717 194.18164,9.0214844 186.5039,2.9954517 176.8876,0.33007812 167.07031,0.33007813 Z M 384.83984,11.394531 c 11.05832,0 18.37636,7.255574 18.37696,16.681641 0,9.419601 -7.30543,16.648437 -18.37696,16.648437 -10.09428,0 -17.68164,-7.565049 -17.68164,-16.648437 0,-9.10458 7.59588,-16.681641 17.68164,-16.681641 z m 100.92383,0 c 11.07035,0 18.36133,7.244372 18.36133,16.681641 0,9.432149 -7.27645,16.648437 -18.36133,16.648437 -10.08058,0 -17.69726,-7.577808 -17.69726,-16.648437 0,-9.092324 7.62384,-16.681641 17.69726,-16.681641 z M 167.07031,23.117187 c 5.98472,0 9.84276,1.319861 13.04102,3.830079 3.19826,2.510217 6.17099,6.709766 8.39844,14.197265 a 11.395025,11.395025 0 0 0 0.002,0.0039 c 4.87787,16.369783 38.58594,145.876953 38.58594,145.876953 a 11.395025,11.395025 0 0 0 22.06836,-0.0488 L 290.50781,24.900391 h 28.59961 c -3.04432,11.002436 -10.64377,38.497237 -22.00781,79.218749 -13.43397,48.13881 -28.031,99.84098 -31.01172,109.04102 -4.3007,13.19106 -12.57976,22.0332 -25.83203,22.0332 -7.91959,0 -12.35504,-2.41732 -16.27344,-6.29297 -3.9184,-3.87565 -6.94636,-9.704 -8.89453,-15.73242 -1.84627,-5.75442 -11.43943,-40.27861 -20.1543,-72.0957 -8.71746,-31.82657 -16.86523,-61.880864 -16.86523,-61.880864 a 11.395025,11.395025 0 0 0 -21.99414,0 c 0,0 -8.14793,30.054574 -16.86719,61.880864 -8.71739,31.81944 -18.32286,66.36356 -20.16601,72.09375 -1.94922,6.02905 -4.97542,11.85665 -8.89454,15.73242 -3.91911,3.87576 -8.35655,6.29492 -16.279293,6.29492 -13.238947,0 -21.544326,-8.85581 -25.808593,-22.03125 a 11.395025,11.395025 0 0 0 -0.0039,-0.0117 C 65.072023,203.9672 50.459653,152.25578 37.015625,104.11719 25.643366,63.396911 18.038785,35.903947 14.992188,24.900391 H 43.595703 L 84.964844,186.97852 a 11.395025,11.395025 0 0 0 22.066406,0.0488 c 0,0 33.69913,-129.456244 38.57617,-145.884762 l 0.002,-0.0039 c 2.22586,-7.481182 5.19967,-11.676234 8.40235,-14.1875 3.20333,-2.511777 7.06953,-3.833985 13.05859,-3.833985 z M 360.58984,72.833984 A 11.395025,11.395025 0 0 0 349.19531,84.226562 V 244.83203 a 11.395025,11.395025 0 0 0 11.39453,11.39453 h 49.63868 a 11.395025,11.395025 0 0 0 11.39453,-11.39453 V 84.226562 A 11.395025,11.395025 0 0 0 410.22852,72.833984 Z m 100.89258,0 A 11.395025,11.395025 0 0 0 450.08789,84.226562 V 244.83203 a 11.395025,11.395025 0 0 0 11.39453,11.39453 h 49.65235 a 11.395025,11.395025 0 0 0 10.90039,-10.20898 11.395025,11.395025 0 0 0 10.90234,10.20898 h 3.63477 a 11.395025,11.395025 0 0 0 4.64648,-1.92578 11.395025,11.395025 0 0 0 4.64844,1.92578 h 3.33203 a 11.395025,11.395025 0 0 0 2.36328,-0.97851 11.395025,11.395025 0 0 0 2.94922,0.97851 h 3.55273 a 11.395025,11.395025 0 0 0 3.00586,-0.99609 11.395025,11.395025 0 0 0 2.40235,0.99609 h 3.45703 a 11.395025,11.395025 0 0 0 11.39453,-11.39453 v -21.75586 a 11.395025,11.395025 0 0 0 -11.39453,-11.39453 h -5.26758 a 11.395025,11.395025 0 0 0 -5.29492,1.74609 11.395025,11.395025 0 0 0 -5.27539,-1.74609 h -5.22461 a 11.395025,11.395025 0 0 0 -1.30274,0.53906 11.395025,11.395025 0 0 0 -1.30273,-0.53906 h -17.0332 a 11.395025,11.395025 0 0 0 -3.70118,1.5332 V 84.226562 A 11.395025,11.395025 0 0 0 511.13477,72.833984 Z m -89.49805,22.78711 h 26.85157 V 233.43945 h -26.85157 z m 100.89063,0 h 26.86523 V 233.43945 H 472.875 Z"
     id="path2" /><path
     style="baseline-shift:baseline;display:inline;overflow:visible;vector-effect:none;fill:#040404;stroke-linecap:round;stroke-linejoin:round;paint-order:markers stroke fill;enable-background:accumulate;stop-color:#000000;stop-opacity:1"
     d="m 355.764,28.076 c 0,15.479 13.033,28.043 29.076,28.043 16.676,0 29.77,-12.304 29.77,-28.043 C 414.609,12.333 401.516,0 384.84,0 368.797,0 355.764,12.582 355.764,28.076 m 4.826,56.151 h 49.639 V 244.833 H 360.59 Z m 96.082,-56.151 c 0,15.479 13.059,28.043 29.092,28.043 16.686,0 29.754,-12.304 29.754,-28.043 C 515.518,12.333 502.449,0 485.764,0 469.73,0 456.672,12.582 456.672,28.076 m 4.81,56.151 h 49.652 V 244.833 H 461.482 Z M 281.654,13.507 238.126,184.161 c 0,0 -33.281,-128.097 -38.695,-146.266 -5.414,-18.199 -16.558,-26.172 -32.36,-26.172 -15.809,0 -26.971,7.973 -32.384,26.172 -5.394,18.169 -38.683,146.266 -38.683,146.266 L 52.447,13.507 H 0 c 0,0 50.371,182.08 57.219,203.164 5.327,16.459 17.944,29.916 36.648,29.916 21.384,0 31.385,-15.592 36.016,-29.916 4.582,-14.24 37.188,-134.498 37.188,-134.498 0,0 32.604,120.258 37.175,134.498 4.629,14.324 14.63,29.916 36.009,29.916 18.719,0 31.313,-13.457 36.673,-29.916 6.831,-21.084 57.17,-203.164 57.17,-203.164 z m 244.575,209.569 h 17.033 v 3.211 h -6.69 v 18.546 h -3.634 v -18.546 h -6.709 z m 22.97,21.757 h -3.332 v -21.757 h 5.225 l 5.242,17.408 5.328,-17.408 h 5.268 v 21.757 h -3.457 v -17.978 l -5.409,17.978 h -3.552 l -5.313,-17.978 z"
     id="path3" /></g>
</svg>
